# Blender 4.4.1
# www.blender.org
mtllib player.mtl
o 球
v 0.277785 0.679334 0.372063
v 0.415735 0.541385 0.372063
v 0.490393 0.361145 0.372063
v 0.566086 0.052690 0.372063
v 0.490393 0.166054 0.372063
v 0.415735 -0.014185 0.372063
v 0.095671 0.753992 0.391093
v 0.187665 0.725539 0.409392
v 0.272448 0.679334 0.426256
v 0.346760 0.617153 0.441038
v 0.407747 0.541385 0.453169
v 0.453064 0.454941 0.462183
v 0.480970 0.361145 0.467734
v 0.490393 0.263600 0.469608
v 0.480970 0.166054 0.467734
v 0.453064 0.072258 0.462183
v 0.407747 -0.014185 0.453169
v 0.346760 -0.089954 0.441038
v 0.272448 -0.152135 0.426256
v 0.187665 -0.198340 0.409392
v 0.095671 -0.226793 0.391093
v 0.090120 0.753992 0.409392
v 0.176777 0.725539 0.445286
v 0.256640 0.679334 0.478367
v 0.326641 0.617153 0.507362
v 0.384089 0.541385 0.531158
v 0.426777 0.454941 0.548840
v 0.453064 0.361145 0.559728
v 0.461940 0.263600 0.563405
v 0.453064 0.166054 0.559728
v 0.426777 0.072258 0.548840
v 0.384089 -0.014185 0.531158
v 0.326641 -0.089954 0.507362
v 0.256640 -0.152135 0.478367
v 0.176777 -0.198340 0.445286
v 0.090120 -0.226793 0.409392
v 0.081106 0.753992 0.426256
v 0.159095 0.725539 0.478367
v 0.230970 0.679334 0.526392
v 0.293969 0.617153 0.568487
v 0.345671 0.541385 0.603033
v 0.384089 0.454941 0.628703
v 0.407747 0.361145 0.644511
v 0.415735 0.263600 0.649848
v 0.407747 0.166054 0.644511
v 0.384089 0.072258 0.628703
v 0.345671 -0.014185 0.603033
v 0.293969 -0.089954 0.568487
v 0.230970 -0.152135 0.526392
v 0.159095 -0.198340 0.478367
v 0.081106 -0.226793 0.426256
v 0.068975 0.753992 0.441038
v 0.135299 0.725539 0.507362
v 0.196424 0.679334 0.568487
v 0.250000 0.617153 0.622063
v 0.293969 0.541385 0.666032
v 0.326641 0.454941 0.698704
v 0.346760 0.361145 0.718823
v 0.353553 0.263600 0.725616
v 0.346760 0.166054 0.718823
v 0.326641 0.072258 0.698704
v 0.293969 -0.014185 0.666032
v 0.250000 -0.089954 0.622063
v 0.196424 -0.152135 0.568487
v 0.135299 -0.198340 0.507362
v 0.068975 -0.226793 0.441038
v 0.054193 0.753992 0.453169
v 0.106304 0.725539 0.531158
v 0.154329 0.679334 0.603033
v 0.196424 0.617153 0.666032
v 0.230970 0.541385 0.717734
v 0.256640 0.454941 0.756152
v 0.272447 0.361145 0.779810
v 0.277785 0.263600 0.787798
v 0.272447 0.166054 0.779810
v 0.256640 0.072258 0.756152
v 0.230970 -0.014185 0.717734
v 0.196424 -0.089954 0.666032
v 0.154329 -0.152135 0.603033
v 0.106304 -0.198340 0.531158
v 0.054193 -0.226793 0.453169
v 0.000000 0.763600 0.372063
v 0.037329 0.753992 0.462183
v 0.073223 0.725539 0.548840
v 0.106304 0.679334 0.628703
v 0.135299 0.617153 0.698704
v 0.159095 0.541385 0.756152
v 0.176777 0.454941 0.798840
v 0.187665 0.361145 0.825127
v 0.191342 0.263600 0.834003
v 0.187665 0.166054 0.825127
v 0.176777 0.072258 0.798840
v 0.159095 -0.014185 0.756152
v 0.135299 -0.089954 0.698704
v 0.106304 -0.152135 0.628703
v 0.073223 -0.198340 0.548840
v 0.037329 -0.226793 0.462183
v 0.019030 0.753992 0.467734
v 0.037329 0.725539 0.559728
v 0.054193 0.679334 0.644511
v 0.068975 0.617153 0.718823
v 0.081106 0.541385 0.779810
v 0.090120 0.454941 0.825127
v 0.095671 0.361145 0.853033
v 0.097545 0.263600 0.862456
v 0.095671 0.166054 0.853033
v 0.090120 0.072258 0.825127
v 0.081106 -0.014185 0.779810
v 0.068975 -0.089954 0.718823
v 0.054193 -0.152135 0.644511
v 0.037329 -0.198340 0.559728
v 0.019030 -0.226793 0.467734
v -0.000000 0.753992 0.469608
v -0.000000 0.725539 0.563405
v -0.000000 0.679334 0.649848
v -0.000000 0.617153 0.725616
v -0.000000 0.723164 0.919180
v 0.000000 0.454941 0.834003
v -0.000000 0.361145 0.862456
v -0.000000 0.263600 0.872063
v -0.000000 0.166054 0.862456
v 0.000000 0.072258 0.834003
v -0.000000 -0.014185 0.787798
v -0.000000 -0.089954 0.725616
v -0.000000 -0.152135 0.649848
v -0.000000 -0.198340 0.563405
v -0.000000 -0.226793 0.469608
v -0.019030 0.753992 0.467734
v -0.037329 0.725539 0.559728
v -0.054193 0.679334 0.644511
v -0.068975 0.617153 0.718823
v -0.081106 0.541385 0.779810
v -0.090120 0.454941 0.825127
v -0.095671 0.361145 0.853033
v -0.097545 0.263600 0.862456
v -0.095671 0.166054 0.853033
v -0.090120 0.072258 0.825127
v -0.081106 -0.014185 0.779810
v -0.068975 -0.089954 0.718823
v -0.054193 -0.152135 0.644511
v -0.037329 -0.198340 0.559728
v -0.019030 -0.226793 0.467734
v -0.037329 0.753992 0.462183
v -0.073223 0.725539 0.548840
v -0.106304 0.679334 0.628703
v -0.135299 0.617153 0.698704
v -0.159095 0.541385 0.756152
v -0.176777 0.454941 0.798840
v -0.187665 0.361145 0.825127
v -0.191342 0.263600 0.834003
v -0.187665 0.166054 0.825127
v -0.176777 0.072258 0.798840
v -0.159095 -0.014185 0.756152
v -0.135299 -0.089954 0.698704
v -0.106304 -0.152135 0.628703
v -0.073223 -0.198340 0.548840
v -0.037329 -0.226793 0.462183
v -0.054193 0.753992 0.453169
v -0.106304 0.725539 0.531158
v -0.154329 0.679334 0.603033
v -0.196424 0.617153 0.666032
v -0.230970 0.541385 0.717734
v -0.256640 0.454941 0.756152
v -0.272448 0.361145 0.779810
v -0.277785 0.263600 0.787798
v -0.272448 0.166054 0.779810
v -0.256640 0.072258 0.756152
v -0.230970 -0.014185 0.717734
v -0.196424 -0.089954 0.666032
v -0.154329 -0.152135 0.603033
v -0.106304 -0.198340 0.531158
v -0.054193 -0.226793 0.453169
v -0.068975 0.753992 0.441038
v -0.135299 0.725539 0.507362
v -0.196424 0.679334 0.568487
v -0.250000 0.617153 0.622063
v -0.293969 0.541385 0.666032
v -0.326641 0.454941 0.698704
v -0.346760 0.361145 0.718823
v -0.353553 0.263600 0.725616
v -0.346760 0.166054 0.718823
v -0.326641 0.072258 0.698704
v -0.293969 -0.014185 0.666032
v -0.250000 -0.089954 0.622063
v -0.196424 -0.152135 0.568487
v -0.135299 -0.198340 0.507362
v -0.068975 -0.226793 0.441038
v -0.081106 0.753992 0.426256
v -0.159095 0.725539 0.478367
v -0.230970 0.679334 0.526392
v -0.293969 0.617153 0.568487
v -0.345671 0.541385 0.603033
v -0.384089 0.454941 0.628703
v -0.407746 0.361145 0.644511
v -0.415735 0.263600 0.649848
v -0.407746 0.166054 0.644511
v -0.384089 0.072258 0.628703
v -0.345671 -0.014185 0.603033
v -0.293969 -0.089954 0.568487
v -0.230970 -0.152135 0.526392
v -0.159095 -0.198340 0.478367
v -0.081106 -0.226793 0.426256
v -0.090120 0.753992 0.409392
v -0.176777 0.725539 0.445286
v -0.256640 0.679334 0.478367
v -0.326641 0.617153 0.507362
v -0.384089 0.541385 0.531158
v -0.426777 0.454941 0.548840
v -0.453064 0.361145 0.559728
v -0.461940 0.263600 0.563405
v -0.453064 0.166054 0.559728
v -0.426777 0.072258 0.548840
v -0.384089 -0.014185 0.531158
v -0.326641 -0.089954 0.507362
v -0.256640 -0.152135 0.478367
v -0.176777 -0.198340 0.445286
v -0.090120 -0.226793 0.409392
v -0.095671 0.753992 0.391093
v -0.187665 0.725539 0.409392
v -0.272447 0.679334 0.426256
v -0.346760 0.617153 0.441038
v -0.407746 0.541385 0.453169
v -0.453064 0.454941 0.462183
v -0.480970 0.361145 0.467734
v -0.490392 0.263600 0.469608
v -0.480970 0.166054 0.467734
v -0.453064 0.072258 0.462183
v -0.407746 -0.014185 0.453169
v -0.346760 -0.089954 0.441038
v -0.272447 -0.152135 0.426256
v -0.187665 -0.198340 0.409392
v -0.095671 -0.226793 0.391093
v -0.097545 0.753992 0.372063
v -0.191342 0.725539 0.372063
v -0.277785 0.679334 0.372063
v -0.353553 0.617153 0.372063
v -0.415735 0.541385 0.372063
v -0.461940 0.454941 0.372063
v -0.490392 0.361145 0.372063
v -0.580285 0.015369 0.372063
v -0.490392 0.166054 0.372063
v -0.461940 0.072258 0.372063
v -0.415735 -0.014185 0.372063
v -0.353553 -0.311346 0.372063
v -0.277785 -0.152135 0.372063
v -0.191342 -0.198340 0.372063
v -0.097545 -0.226793 0.372063
v -0.095671 0.753992 0.353033
v -0.187665 0.725539 0.334734
v -0.272447 0.679334 0.317870
v -0.346760 0.617153 0.303088
v -0.407746 0.541385 0.290957
v -0.453064 0.454941 0.281943
v -0.480970 0.361145 0.276392
v -0.490392 0.263600 0.274518
v -0.480970 0.166054 0.276392
v -0.453064 0.072258 0.281943
v -0.407746 -0.014185 0.290957
v -0.346760 -0.089954 0.303088
v -0.272447 -0.152135 0.317870
v -0.187665 -0.198340 0.334734
v -0.095671 -0.226793 0.353033
v -0.090120 0.753992 0.334734
v -0.176777 0.725539 0.298840
v -0.256640 0.679334 0.265759
v -0.326641 0.617153 0.236764
v -0.384089 0.541385 0.212968
v -0.426777 0.454941 0.195286
v -0.453063 0.361145 0.184398
v -0.461939 0.263600 0.180721
v -0.453063 0.166054 0.184398
v -0.426777 0.072258 0.195286
v -0.384089 -0.014185 0.212968
v -0.326641 -0.089954 0.236764
v -0.256640 -0.152135 0.265759
v -0.176777 -0.198340 0.298840
v -0.090120 -0.226793 0.334734
v -0.081106 0.753992 0.317870
v -0.159095 0.725539 0.265759
v -0.230970 0.679334 0.217734
v -0.293969 0.617153 0.175639
v -0.345671 0.541385 0.141093
v -0.384089 0.454941 0.115423
v -0.407746 0.361145 0.099616
v -0.415734 0.263600 0.094278
v -0.407746 0.166054 0.099616
v -0.384089 0.072258 0.115423
v -0.345671 -0.014185 0.141093
v -0.293969 -0.089954 0.175639
v -0.230970 -0.152135 0.217734
v -0.159095 -0.198340 0.265759
v -0.081106 -0.226793 0.317870
v -0.068975 0.753992 0.303088
v -0.135299 0.725539 0.236764
v -0.196424 0.679334 0.175639
v -0.250000 0.617153 0.122063
v -0.293969 0.541385 0.078094
v -0.326641 0.454941 0.045422
v -0.346760 0.361145 0.025303
v -0.353553 0.263600 0.018510
v -0.346760 0.166054 0.025303
v -0.326641 0.072258 0.045422
v -0.293969 -0.014185 0.078094
v -0.250000 -0.089954 0.122063
v -0.196424 -0.152135 0.175639
v -0.135299 -0.198340 0.236764
v -0.068975 -0.226793 0.303088
v 0.000000 -0.236400 0.372063
v -0.054193 0.753992 0.290957
v -0.106304 0.725539 0.212968
v -0.154329 0.679334 0.141093
v -0.196424 0.617153 0.078094
v -0.230970 0.541385 0.026392
v -0.256640 0.454941 -0.012026
v -0.272447 0.361145 -0.035683
v -0.277785 0.263600 -0.043671
v -0.272447 0.166054 -0.035683
v -0.256640 0.072258 -0.012026
v -0.230970 -0.014185 0.026392
v -0.196424 -0.089954 0.078094
v -0.154329 -0.152135 0.141093
v -0.106304 -0.198340 0.212968
v -0.054193 -0.226793 0.290957
v -0.037329 0.753992 0.281943
v -0.073223 0.725539 0.195286
v -0.106304 0.679334 0.115423
v -0.135299 0.617153 0.045422
v -0.159095 0.541385 -0.012026
v -0.176777 0.454941 -0.054713
v -0.187665 0.361145 -0.081000
v -0.191341 0.263600 -0.089876
v -0.187665 0.166054 -0.081000
v -0.176777 0.072258 -0.054713
v -0.159095 -0.014185 -0.012026
v -0.135299 -0.089954 0.045422
v -0.106304 -0.152135 0.115423
v -0.073223 -0.198340 0.195286
v -0.037329 -0.226793 0.281943
v -0.019030 0.753992 0.276392
v -0.037329 0.725539 0.184398
v -0.054193 0.679334 0.099616
v -0.068975 0.617153 0.025303
v -0.081106 0.541385 -0.035683
v -0.090120 0.454941 -0.081000
v -0.095671 0.361145 -0.108907
v -0.097545 0.263600 -0.118329
v -0.095671 0.166054 -0.108907
v -0.090120 0.072258 -0.081000
v -0.081106 -0.014185 -0.035683
v -0.068975 -0.089954 0.025303
v -0.054193 -0.152135 0.099616
v -0.037329 -0.198340 0.184398
v -0.019030 -0.226793 0.276392
v 0.000000 0.753992 0.274518
v 0.000000 0.725539 0.180721
v 0.000000 0.679334 0.094278
v 0.000000 0.617153 0.018510
v 0.000000 0.541385 -0.043671
v 0.000000 0.454941 -0.089876
v 0.000000 0.361145 -0.118329
v 0.000000 0.263600 -0.127936
v 0.000000 0.166054 -0.118329
v 0.000000 0.072258 -0.089876
v 0.000000 -0.014185 -0.043671
v 0.000000 -0.089954 0.018510
v 0.000000 -0.152135 0.094278
v 0.000000 -0.198340 0.180721
v 0.000000 -0.226793 0.274518
v 0.019030 0.753992 0.276392
v 0.037329 0.725539 0.184398
v 0.054193 0.679334 0.099616
v 0.068975 0.617153 0.025303
v 0.081106 0.541385 -0.035683
v 0.090120 0.454941 -0.081000
v 0.095671 0.361145 -0.108907
v 0.097545 0.263600 -0.118329
v 0.095671 0.166054 -0.108907
v 0.090120 0.072258 -0.081000
v 0.081106 -0.014185 -0.035683
v 0.068975 -0.089954 0.025303
v 0.054193 -0.152135 0.099616
v 0.037329 -0.198340 0.184398
v 0.019030 -0.226793 0.276392
v 0.037329 0.753992 0.281943
v 0.073223 0.725539 0.195286
v 0.106304 0.679334 0.115423
v 0.135299 0.617153 0.045422
v 0.159095 0.541385 -0.012025
v 0.176777 0.454941 -0.054713
v 0.187665 0.361145 -0.081000
v 0.191342 0.263600 -0.089876
v 0.187665 0.166054 -0.081000
v 0.176777 0.072258 -0.054713
v 0.159095 -0.014185 -0.012025
v 0.135299 -0.089954 0.045422
v 0.106304 -0.152135 0.115423
v 0.073223 -0.198340 0.195286
v 0.037329 -0.226793 0.281943
v 0.054193 0.753992 0.290957
v 0.106304 0.725539 0.212968
v 0.154329 0.679334 0.141093
v 0.196424 0.617153 0.078094
v 0.230970 0.541385 0.026393
v 0.256640 0.454941 -0.012026
v 0.272448 0.361145 -0.035683
v 0.277785 0.263600 -0.043671
v 0.272448 0.166054 -0.035683
v 0.256640 0.072258 -0.012026
v 0.230970 -0.014185 0.026393
v 0.196424 -0.089954 0.078094
v 0.154329 -0.152135 0.141093
v 0.106304 -0.198340 0.212968
v 0.054193 -0.226793 0.290957
v 0.068975 0.753992 0.303088
v 0.135299 0.725539 0.236764
v 0.196424 0.679334 0.175640
v 0.250000 0.617153 0.122063
v 0.293969 0.541385 0.078094
v 0.326641 0.454941 0.045423
v 0.346760 0.361145 0.025303
v 0.353553 0.263600 0.018510
v 0.346760 0.166054 0.025303
v 0.326641 0.072258 0.045423
v 0.293969 -0.014185 0.078094
v 0.250000 -0.089954 0.122063
v 0.196424 -0.152135 0.175640
v 0.135299 -0.198340 0.236764
v 0.068975 -0.226793 0.303088
v 0.081106 0.753992 0.317870
v 0.159095 0.725539 0.265759
v 0.230970 0.679334 0.217734
v 0.293969 0.617153 0.175639
v 0.345671 0.541385 0.141093
v 0.384089 0.454941 0.115423
v 0.407746 0.361145 0.099616
v 0.415734 0.263600 0.094278
v 0.407746 0.166054 0.099616
v 0.384089 0.072258 0.115423
v 0.345671 -0.014185 0.141093
v 0.293969 -0.089954 0.175639
v 0.230970 -0.152135 0.217734
v 0.159095 -0.198340 0.265759
v 0.081106 -0.226793 0.317870
v 0.090120 0.753992 0.334734
v 0.176777 0.725539 0.298840
v 0.256640 0.679334 0.265760
v 0.326641 0.617153 0.236764
v 0.384089 0.541385 0.212969
v 0.426777 0.454941 0.195287
v 0.453064 0.361145 0.184398
v 0.461939 0.263600 0.180722
v 0.453064 0.166054 0.184398
v 0.426777 0.072258 0.195287
v 0.384089 -0.014185 0.212969
v 0.326641 -0.089954 0.236764
v 0.256640 -0.152135 0.265760
v 0.176777 -0.198340 0.298840
v 0.090120 -0.226793 0.334734
v 0.095671 0.753992 0.353033
v 0.187665 0.725539 0.334734
v 0.272447 0.679334 0.317870
v 0.346760 0.617153 0.303088
v 0.407746 0.541385 0.290957
v 0.453064 0.454941 0.281943
v 0.480970 0.361145 0.276392
v 0.490392 0.263600 0.274518
v 0.480970 0.166054 0.276392
v 0.453064 0.072258 0.281943
v 0.407746 -0.014185 0.290957
v 0.346760 -0.089954 0.303088
v 0.272447 -0.152135 0.317870
v 0.187665 -0.198340 0.334734
v 0.095671 -0.226793 0.353033
v 0.097545 0.753992 0.372063
v 0.191342 0.725539 0.372063
v 0.353553 0.617153 0.372063
v 0.461940 0.454941 0.372063
v 0.461940 0.072258 0.372063
v 0.353553 -0.289401 0.372063
v 0.277785 -0.152135 0.372063
v 0.191342 -0.198340 0.372063
v 0.097545 -0.226793 0.372063
v -0.081106 0.541385 0.779810
vn 0.2902 -0.9565 0.0286
vn 0.9584 0.2019 0.2019
vn 0.0980 0.9951 0.0097
vn 0.0980 -0.9951 0.0097
vn -0.1454 -0.6996 0.6996
vn 0.2902 0.9565 0.0286
vn 0.9527 -0.2890 0.0938
vn 0.4709 0.8810 0.0464
vn 0.8786 -0.4696 0.0865
vn 0.6332 0.7715 0.0624
vn 0.8197 -0.3044 0.4853
vn 0.7708 0.6326 0.0759
vn -0.3332 -0.5100 0.7930
vn 0.8786 0.4696 0.0865
vn 0.4709 -0.8810 0.0464
vn 0.9527 0.2890 0.0938
vn 0.8448 0.4696 0.2563
vn 0.4528 -0.8810 0.1374
vn 0.9161 0.2890 0.2779
vn 0.2790 -0.9565 0.0846
vn 0.9524 0.0975 0.2889
vn 0.0942 0.9951 0.0286
vn 0.0942 -0.9951 0.0286
vn 0.9524 -0.0975 0.2889
vn 0.2790 0.9565 0.0846
vn 0.9161 -0.2890 0.2779
vn 0.4528 0.8810 0.1374
vn 0.8448 -0.4696 0.2563
vn 0.6088 0.7715 0.1847
vn 0.7412 -0.6326 0.2248
vn 0.7412 0.6326 0.2248
vn 0.6088 -0.7715 0.1847
vn 0.8443 -0.2890 0.4513
vn 0.4173 0.8810 0.2230
vn 0.7786 -0.4696 0.4162
vn 0.5611 0.7715 0.2999
vn 0.6831 -0.6326 0.3651
vn 0.6831 0.6326 0.3651
vn 0.5611 -0.7715 0.2999
vn 0.7786 0.4696 0.4162
vn 0.4173 -0.8810 0.2230
vn 0.8443 0.2890 0.4513
vn 0.2571 -0.9565 0.1374
vn 0.8777 0.0975 0.4691
vn 0.0869 0.9951 0.0464
vn 0.0869 -0.9951 0.0464
vn 0.8777 -0.0975 0.4691
vn 0.2571 0.9565 0.1374
vn 0.3658 -0.8810 0.3002
vn 0.7400 0.2890 0.6073
vn 0.2254 -0.9565 0.1850
vn 0.7693 0.0975 0.6314
vn 0.0761 0.9951 0.0625
vn 0.0761 -0.9951 0.0625
vn 0.7693 -0.0975 0.6314
vn 0.2254 0.9565 0.1850
vn 0.7400 -0.2890 0.6073
vn 0.3658 0.8810 0.3002
vn 0.6825 -0.4696 0.5601
vn 0.4918 0.7715 0.4036
vn 0.5987 -0.6326 0.4913
vn 0.5987 0.6326 0.4913
vn 0.4918 -0.7715 0.4036
vn 0.6825 0.4696 0.5601
vn 0.5601 -0.4696 0.6825
vn 0.4036 0.7715 0.4918
vn 0.4913 -0.6326 0.5987
vn 0.4913 0.6326 0.5987
vn 0.4036 -0.7715 0.4918
vn 0.5601 0.4696 0.6825
vn 0.3002 -0.8810 0.3658
vn 0.6073 0.2890 0.7400
vn 0.1850 -0.9565 0.2254
vn 0.6314 0.0975 0.7693
vn 0.0625 0.9951 0.0761
vn 0.0625 -0.9951 0.0761
vn 0.6314 -0.0975 0.7693
vn 0.1850 0.9565 0.2254
vn 0.6073 -0.2890 0.7400
vn 0.3002 0.8810 0.3658
vn 0.1374 -0.9565 0.2571
vn 0.4691 0.0975 0.8777
vn 0.0464 0.9951 0.0869
vn 0.0464 -0.9951 0.0869
vn 0.4691 -0.0975 0.8777
vn 0.1374 0.9565 0.2571
vn 0.4513 -0.2890 0.8443
vn 0.2231 0.8810 0.4173
vn 0.4162 -0.4696 0.7786
vn 0.2999 0.7715 0.5611
vn 0.3651 -0.6326 0.6831
vn 0.3651 0.6326 0.6831
vn 0.2999 -0.7715 0.5611
vn 0.4162 0.4696 0.7786
vn 0.2231 -0.8810 0.4173
vn 0.4513 0.2890 0.8443
vn 0.1847 0.7715 0.6088
vn 0.2248 -0.6326 0.7412
vn 0.2248 0.6326 0.7412
vn 0.1847 -0.7715 0.6088
vn 0.2563 0.4696 0.8448
vn 0.1374 -0.8810 0.4528
vn 0.2779 0.2890 0.9161
vn 0.0846 -0.9565 0.2790
vn 0.2889 0.0975 0.9524
vn 0.0286 0.9951 0.0942
vn 0.0286 -0.9951 0.0942
vn 0.2889 -0.0975 0.9524
vn 0.0846 0.9565 0.2790
vn 0.2779 -0.2890 0.9161
vn 0.1374 0.8810 0.4528
vn 0.2563 -0.4696 0.8448
vn 0.0975 0.0975 0.9904
vn 0.0097 0.9951 0.0980
vn 0.0097 -0.9951 0.0980
vn 0.0975 -0.0975 0.9904
vn 0.0286 0.9565 0.2902
vn 0.0938 -0.2890 0.9527
vn 0.0464 0.8810 0.4709
vn 0.0865 -0.4696 0.8786
vn 0.0624 0.7715 0.6332
vn 0.0759 -0.6326 0.7708
vn 0.7183 0.6861 -0.1157
vn 0.0624 -0.7715 0.6332
vn 0.6070 -0.0735 0.7913
vn 0.0464 -0.8810 0.4709
vn 0.0938 0.2890 0.9527
vn 0.0286 -0.9565 0.2902
vn -0.0759 -0.6326 0.7708
vn -0.7183 0.6861 -0.1157
vn -0.0624 -0.7715 0.6332
vn -0.6070 -0.0735 0.7913
vn -0.0464 -0.8810 0.4709
vn -0.0938 0.2890 0.9527
vn -0.0286 -0.9565 0.2902
vn -0.0975 0.0975 0.9904
vn -0.0097 0.9951 0.0980
vn -0.0097 -0.9951 0.0980
vn -0.0975 -0.0975 0.9904
vn -0.0286 0.9565 0.2902
vn -0.0938 -0.2890 0.9527
vn -0.0464 0.8810 0.4709
vn -0.0865 -0.4696 0.8786
vn -0.0624 0.7715 0.6332
vn -0.0286 0.9951 0.0942
vn -0.0286 -0.9951 0.0942
vn -0.2889 -0.0975 0.9524
vn -0.0846 0.9565 0.2790
vn -0.2779 -0.2890 0.9161
vn -0.1374 0.8810 0.4528
vn -0.2563 -0.4696 0.8448
vn -0.1847 0.7715 0.6088
vn -0.2248 -0.6326 0.7412
vn -0.2248 0.6326 0.7412
vn -0.1847 -0.7715 0.6088
vn -0.2563 0.4696 0.8448
vn -0.1374 -0.8810 0.4528
vn -0.2779 0.2890 0.9161
vn -0.0846 -0.9565 0.2790
vn -0.2889 0.0975 0.9524
vn -0.3651 0.6326 0.6831
vn -0.2999 -0.7715 0.5611
vn -0.4162 0.4696 0.7786
vn -0.2231 -0.8810 0.4173
vn -0.4513 0.2890 0.8443
vn -0.1374 -0.9565 0.2571
vn -0.4691 0.0975 0.8777
vn -0.0464 0.9951 0.0869
vn -0.0464 -0.9951 0.0869
vn -0.4691 -0.0975 0.8777
vn -0.1374 0.9565 0.2571
vn -0.4513 -0.2890 0.8443
vn -0.2231 0.8810 0.4173
vn -0.4162 -0.4696 0.7786
vn -0.2999 0.7715 0.5611
vn -0.3651 -0.6326 0.6831
vn -0.6314 -0.0975 0.7693
vn -0.1850 0.9565 0.2254
vn -0.6073 -0.2890 0.7400
vn -0.3002 0.8810 0.3658
vn -0.5601 -0.4696 0.6825
vn -0.4036 0.7715 0.4918
vn -0.4913 -0.6326 0.5987
vn -0.4913 0.6326 0.5987
vn -0.4036 -0.7715 0.4918
vn -0.5601 0.4696 0.6825
vn -0.3002 -0.8810 0.3658
vn -0.6073 0.2890 0.7400
vn -0.1850 -0.9565 0.2254
vn -0.6314 0.0975 0.7693
vn -0.0625 0.9951 0.0761
vn -0.0625 -0.9951 0.0761
vn -0.4918 -0.7715 0.4036
vn -0.6825 0.4696 0.5601
vn -0.3658 -0.8810 0.3002
vn -0.7400 0.2890 0.6073
vn -0.2254 -0.9565 0.1850
vn -0.7693 0.0975 0.6314
vn -0.0761 0.9951 0.0625
vn -0.0761 -0.9951 0.0625
vn -0.7693 -0.0975 0.6314
vn -0.2254 0.9565 0.1850
vn -0.7400 -0.2890 0.6073
vn -0.3658 0.8810 0.3002
vn -0.6825 -0.4696 0.5601
vn -0.4918 0.7715 0.4036
vn -0.5987 -0.6326 0.4913
vn -0.5987 0.6326 0.4913
vn -0.8443 -0.2890 0.4513
vn -0.4173 0.8810 0.2230
vn -0.7786 -0.4696 0.4162
vn -0.5611 0.7715 0.2999
vn -0.6831 -0.6326 0.3651
vn -0.6831 0.6326 0.3651
vn -0.5611 -0.7715 0.2999
vn -0.7786 0.4696 0.4162
vn -0.4173 -0.8810 0.2230
vn -0.8443 0.2890 0.4513
vn -0.2571 -0.9565 0.1374
vn -0.8777 0.0975 0.4691
vn -0.0869 0.9951 0.0464
vn -0.0869 -0.9951 0.0464
vn -0.8777 -0.0975 0.4691
vn -0.2571 0.9565 0.1374
vn -0.4528 -0.8810 0.1374
vn -0.9161 0.2890 0.2779
vn -0.2790 -0.9565 0.0846
vn -0.9524 0.0975 0.2889
vn -0.0942 0.9951 0.0286
vn -0.0942 -0.9951 0.0286
vn -0.9524 -0.0975 0.2889
vn -0.2790 0.9565 0.0846
vn -0.9161 -0.2890 0.2779
vn -0.4528 0.8810 0.1374
vn -0.8448 -0.4696 0.2563
vn -0.6088 0.7715 0.1847
vn -0.7412 -0.6326 0.2248
vn -0.7412 0.6326 0.2248
vn -0.6088 -0.7715 0.1847
vn -0.8448 0.4696 0.2563
vn -0.4709 0.8810 0.0464
vn -0.8786 -0.4696 0.0865
vn -0.6332 0.7715 0.0624
vn -0.8162 -0.2859 0.5021
vn -0.7708 0.6326 0.0759
vn 0.3797 -0.4656 0.7994
vn -0.8786 0.4696 0.0865
vn -0.4709 -0.8810 0.0464
vn -0.9527 0.2890 0.0938
vn -0.2902 -0.9565 0.0286
vn -0.9529 0.2144 0.2144
vn -0.0980 0.9951 0.0097
vn -0.0980 -0.9951 0.0097
vn 0.3647 -0.6584 0.6584
vn -0.2902 0.9565 0.0286
vn -0.9527 -0.2890 0.0938
vn -0.9527 0.2890 -0.0938
vn -0.2902 -0.9565 -0.0286
vn -0.9529 0.2144 -0.2144
vn -0.0980 0.9951 -0.0096
vn -0.0980 -0.9951 -0.0097
vn 0.3647 -0.6584 -0.6584
vn -0.2902 0.9565 -0.0286
vn -0.9527 -0.2890 -0.0938
vn -0.4709 0.8810 -0.0464
vn -0.8786 -0.4696 -0.0865
vn -0.6332 0.7715 -0.0624
vn -0.8162 -0.2859 -0.5021
vn -0.7708 0.6326 -0.0759
vn 0.3797 -0.4656 -0.7994
vn -0.8786 0.4696 -0.0865
vn -0.4709 -0.8810 -0.0464
vn -0.8448 -0.4696 -0.2563
vn -0.6088 0.7715 -0.1847
vn -0.7412 -0.6326 -0.2248
vn -0.7412 0.6326 -0.2248
vn -0.6088 -0.7715 -0.1847
vn -0.8448 0.4696 -0.2563
vn -0.4528 -0.8810 -0.1374
vn -0.9161 0.2890 -0.2779
vn -0.2790 -0.9565 -0.0846
vn -0.9524 0.0975 -0.2889
vn -0.0942 0.9951 -0.0286
vn -0.0942 -0.9951 -0.0286
vn -0.9524 -0.0975 -0.2889
vn -0.2790 0.9565 -0.0846
vn -0.9161 -0.2890 -0.2779
vn -0.4528 0.8810 -0.1374
vn -0.2571 -0.9565 -0.1374
vn -0.8777 0.0975 -0.4691
vn -0.0869 0.9951 -0.0464
vn -0.0869 -0.9951 -0.0464
vn -0.8777 -0.0975 -0.4691
vn -0.2571 0.9565 -0.1374
vn -0.8443 -0.2890 -0.4513
vn -0.4173 0.8810 -0.2231
vn -0.7786 -0.4696 -0.4162
vn -0.5611 0.7715 -0.2999
vn -0.6831 -0.6326 -0.3651
vn -0.6831 0.6326 -0.3651
vn -0.5611 -0.7715 -0.2999
vn -0.7786 0.4696 -0.4162
vn -0.4173 -0.8810 -0.2231
vn -0.8443 0.2890 -0.4513
vn -0.4918 0.7715 -0.4036
vn -0.5987 -0.6326 -0.4913
vn -0.5987 0.6326 -0.4913
vn -0.4918 -0.7715 -0.4036
vn -0.6825 0.4696 -0.5601
vn -0.3658 -0.8810 -0.3002
vn -0.7400 0.2890 -0.6073
vn -0.2254 -0.9565 -0.1850
vn -0.7693 0.0975 -0.6314
vn -0.0761 0.9951 -0.0625
vn -0.0761 -0.9951 -0.0625
vn -0.7693 -0.0975 -0.6314
vn -0.2254 0.9565 -0.1850
vn -0.7400 -0.2890 -0.6073
vn -0.3658 0.8810 -0.3002
vn -0.6825 -0.4696 -0.5601
vn -0.6314 0.0975 -0.7693
vn -0.0625 0.9951 -0.0761
vn -0.0625 -0.9951 -0.0761
vn -0.6314 -0.0975 -0.7693
vn -0.1850 0.9565 -0.2254
vn -0.6073 -0.2890 -0.7400
vn -0.3002 0.8810 -0.3658
vn -0.5601 -0.4696 -0.6825
vn -0.4036 0.7715 -0.4918
vn -0.4913 -0.6326 -0.5987
vn -0.4913 0.6326 -0.5987
vn -0.4036 -0.7715 -0.4918
vn -0.5601 0.4696 -0.6825
vn -0.3002 -0.8810 -0.3658
vn -0.6073 0.2890 -0.7400
vn -0.1850 -0.9565 -0.2254
vn -0.3651 -0.6326 -0.6831
vn -0.3651 0.6326 -0.6831
vn -0.2999 -0.7715 -0.5611
vn -0.4162 0.4696 -0.7786
vn -0.2230 -0.8810 -0.4173
vn -0.4513 0.2890 -0.8443
vn -0.1374 -0.9565 -0.2571
vn -0.4691 0.0975 -0.8777
vn -0.0464 0.9951 -0.0869
vn -0.0464 -0.9951 -0.0869
vn -0.4691 -0.0975 -0.8777
vn -0.1374 0.9565 -0.2571
vn -0.4513 -0.2890 -0.8443
vn -0.2230 0.8810 -0.4173
vn -0.4162 -0.4696 -0.7786
vn -0.2999 0.7715 -0.5611
vn -0.0286 -0.9951 -0.0942
vn -0.2889 -0.0975 -0.9524
vn -0.0846 0.9565 -0.2790
vn -0.2779 -0.2890 -0.9161
vn -0.1374 0.8810 -0.4528
vn -0.2563 -0.4696 -0.8448
vn -0.1847 0.7715 -0.6088
vn -0.2248 -0.6326 -0.7412
vn -0.2248 0.6326 -0.7412
vn -0.1847 -0.7715 -0.6088
vn -0.2563 0.4696 -0.8448
vn -0.1374 -0.8810 -0.4528
vn -0.2779 0.2890 -0.9161
vn -0.0846 -0.9565 -0.2790
vn -0.2889 0.0975 -0.9524
vn -0.0286 0.9951 -0.0942
vn -0.0624 -0.7715 -0.6332
vn -0.0865 0.4696 -0.8786
vn -0.0464 -0.8810 -0.4709
vn -0.0938 0.2890 -0.9527
vn -0.0286 -0.9565 -0.2902
vn -0.0975 0.0975 -0.9904
vn -0.0097 0.9951 -0.0980
vn -0.0097 -0.9951 -0.0980
vn -0.0975 -0.0975 -0.9904
vn -0.0286 0.9565 -0.2902
vn -0.0938 -0.2890 -0.9527
vn -0.0464 0.8810 -0.4709
vn -0.0865 -0.4696 -0.8786
vn -0.0624 0.7715 -0.6332
vn -0.0759 -0.6326 -0.7708
vn -0.0759 0.6326 -0.7708
vn 0.0286 0.9565 -0.2902
vn 0.0938 -0.2890 -0.9527
vn 0.0464 0.8810 -0.4709
vn 0.0865 -0.4696 -0.8786
vn 0.0624 0.7715 -0.6332
vn 0.0759 -0.6326 -0.7708
vn 0.0759 0.6326 -0.7708
vn 0.0624 -0.7715 -0.6332
vn 0.0865 0.4696 -0.8786
vn 0.0464 -0.8810 -0.4709
vn 0.0938 0.2890 -0.9527
vn 0.0286 -0.9565 -0.2902
vn 0.0976 0.0975 -0.9904
vn 0.0097 0.9951 -0.0980
vn 0.0097 -0.9951 -0.0980
vn 0.0976 -0.0975 -0.9904
vn 0.2563 0.4696 -0.8448
vn 0.1374 -0.8810 -0.4528
vn 0.2779 0.2890 -0.9161
vn 0.0846 -0.9565 -0.2790
vn 0.2889 0.0975 -0.9524
vn 0.0286 0.9951 -0.0942
vn 0.0286 -0.9951 -0.0942
vn 0.2889 -0.0975 -0.9524
vn 0.0846 0.9565 -0.2790
vn 0.2779 -0.2890 -0.9161
vn 0.1374 0.8810 -0.4528
vn 0.2563 -0.4696 -0.8448
vn 0.1847 0.7715 -0.6088
vn 0.2248 -0.6326 -0.7412
vn 0.2248 0.6326 -0.7412
vn 0.1847 -0.7715 -0.6088
vn 0.4513 -0.2890 -0.8443
vn 0.2231 0.8810 -0.4173
vn 0.4162 -0.4696 -0.7786
vn 0.2999 0.7715 -0.5611
vn 0.3651 -0.6326 -0.6831
vn 0.3651 0.6326 -0.6831
vn 0.2999 -0.7715 -0.5611
vn 0.4162 0.4696 -0.7786
vn 0.2231 -0.8810 -0.4173
vn 0.4513 0.2890 -0.8443
vn 0.1374 -0.9565 -0.2571
vn 0.4691 0.0975 -0.8777
vn 0.0464 0.9951 -0.0869
vn 0.0464 -0.9951 -0.0869
vn 0.4691 -0.0975 -0.8777
vn 0.1374 0.9565 -0.2571
vn 0.3002 -0.8810 -0.3658
vn 0.6073 0.2890 -0.7400
vn 0.1850 -0.9565 -0.2254
vn 0.6314 0.0975 -0.7693
vn 0.0625 0.9951 -0.0761
vn 0.0625 -0.9951 -0.0761
vn 0.6314 -0.0975 -0.7693
vn 0.1850 0.9565 -0.2254
vn 0.6073 -0.2890 -0.7400
vn 0.3002 0.8810 -0.3658
vn 0.5601 -0.4696 -0.6825
vn 0.4036 0.7715 -0.4918
vn 0.4913 -0.6326 -0.5987
vn 0.4913 0.6326 -0.5987
vn 0.4036 -0.7715 -0.4918
vn 0.5601 0.4696 -0.6825
vn 0.3658 0.8810 -0.3002
vn 0.6825 -0.4696 -0.5601
vn 0.4918 0.7715 -0.4036
vn 0.5987 -0.6326 -0.4913
vn 0.5987 0.6326 -0.4913
vn 0.4918 -0.7715 -0.4036
vn 0.6825 0.4696 -0.5601
vn 0.3658 -0.8810 -0.3002
vn 0.7400 0.2890 -0.6073
vn 0.2254 -0.9565 -0.1850
vn 0.7693 0.0975 -0.6314
vn 0.0761 0.9951 -0.0625
vn 0.0761 -0.9951 -0.0625
vn 0.7693 -0.0975 -0.6314
vn 0.2254 0.9565 -0.1850
vn 0.7400 -0.2890 -0.6073
vn 0.8443 0.2890 -0.4513
vn 0.2571 -0.9565 -0.1374
vn 0.8777 0.0975 -0.4691
vn 0.0869 0.9951 -0.0464
vn 0.0869 -0.9951 -0.0464
vn 0.8777 -0.0975 -0.4691
vn 0.2571 0.9565 -0.1374
vn 0.8443 -0.2890 -0.4513
vn 0.4173 0.8810 -0.2230
vn 0.7786 -0.4696 -0.4162
vn 0.5611 0.7715 -0.2999
vn 0.6831 -0.6326 -0.3651
vn 0.6831 0.6326 -0.3651
vn 0.5611 -0.7715 -0.2999
vn 0.7786 0.4696 -0.4162
vn 0.4173 -0.8810 -0.2230
vn 0.8448 -0.4696 -0.2563
vn 0.6088 0.7715 -0.1847
vn 0.7412 -0.6326 -0.2248
vn 0.7412 0.6326 -0.2248
vn 0.6088 -0.7715 -0.1847
vn 0.8448 0.4696 -0.2563
vn 0.4528 -0.8810 -0.1374
vn 0.9161 0.2890 -0.2779
vn 0.2790 -0.9565 -0.0846
vn 0.9524 0.0975 -0.2889
vn 0.0942 0.9951 -0.0286
vn 0.0942 -0.9951 -0.0286
vn 0.9524 -0.0975 -0.2889
vn 0.2790 0.9565 -0.0846
vn 0.9161 -0.2890 -0.2779
vn 0.4528 0.8810 -0.1374
vn 0.2902 -0.9565 -0.0286
vn 0.9584 0.2019 -0.2019
vn 0.0980 0.9951 -0.0097
vn 0.0980 -0.9951 -0.0097
vn -0.1454 -0.6996 -0.6996
vn 0.2902 0.9565 -0.0286
vn 0.9527 -0.2890 -0.0938
vn 0.4709 0.8810 -0.0464
vn 0.8786 -0.4696 -0.0865
vn 0.6332 0.7715 -0.0624
vn 0.8197 -0.3044 -0.4853
vn 0.7708 0.6326 -0.0759
vn -0.3332 -0.5100 -0.7930
vn 0.8786 0.4696 -0.0865
vn 0.4709 -0.8810 -0.0464
vn 0.9527 0.2890 -0.0938
vt 0.750000 0.062500
vt 0.750000 0.125000
vt 0.718750 0.125000
vt 0.718750 0.062500
vt 0.750000 0.500000
vt 0.750000 0.562500
vt 0.718750 0.562500
vt 0.718750 0.500000
vt 0.750000 0.937500
vt 0.734375 1.000000
vt 0.718750 0.937500
vt 0.734375 0.000000
vt 0.750000 0.437500
vt 0.718750 0.437500
vt 0.750000 0.875000
vt 0.718750 0.875000
vt 0.750000 0.375000
vt 0.718750 0.375000
vt 0.750000 0.812500
vt 0.718750 0.812500
vt 0.750000 0.312500
vt 0.718750 0.312500
vt 0.750000 0.750000
vt 0.718750 0.750000
vt 0.750000 0.250000
vt 0.718750 0.250000
vt 0.750000 0.687500
vt 0.718750 0.687500
vt 0.750000 0.187500
vt 0.718750 0.187500
vt 0.750000 0.625000
vt 0.718750 0.625000
vt 0.687500 0.687500
vt 0.687500 0.625000
vt 0.687500 0.187500
vt 0.687500 0.125000
vt 0.687500 0.562500
vt 0.687500 0.062500
vt 0.687500 0.500000
vt 0.703125 1.000000
vt 0.687500 0.937500
vt 0.703125 0.000000
vt 0.687500 0.437500
vt 0.687500 0.875000
vt 0.687500 0.375000
vt 0.687500 0.812500
vt 0.687500 0.312500
vt 0.687500 0.750000
vt 0.687500 0.250000
vt 0.656250 0.437500
vt 0.656250 0.375000
vt 0.656250 0.875000
vt 0.656250 0.812500
vt 0.656250 0.312500
vt 0.656250 0.750000
vt 0.656250 0.250000
vt 0.656250 0.687500
vt 0.656250 0.187500
vt 0.656250 0.625000
vt 0.656250 0.125000
vt 0.656250 0.562500
vt 0.656250 0.062500
vt 0.656250 0.500000
vt 0.671875 1.000000
vt 0.656250 0.937500
vt 0.671875 0.000000
vt 0.625000 0.187500
vt 0.625000 0.125000
vt 0.625000 0.625000
vt 0.625000 0.562500
vt 0.625000 0.062500
vt 0.625000 0.500000
vt 0.640625 1.000000
vt 0.625000 0.937500
vt 0.640625 0.000000
vt 0.625000 0.437500
vt 0.625000 0.875000
vt 0.625000 0.375000
vt 0.625000 0.812500
vt 0.625000 0.312500
vt 0.625000 0.750000
vt 0.625000 0.250000
vt 0.625000 0.687500
vt 0.593750 0.375000
vt 0.593750 0.312500
vt 0.593750 0.812500
vt 0.593750 0.750000
vt 0.593750 0.250000
vt 0.593750 0.687500
vt 0.593750 0.187500
vt 0.593750 0.625000
vt 0.593750 0.125000
vt 0.593750 0.562500
vt 0.593750 0.062500
vt 0.593750 0.500000
vt 0.609375 1.000000
vt 0.593750 0.937500
vt 0.609375 0.000000
vt 0.593750 0.437500
vt 0.593750 0.875000
vt 0.562500 0.125000
vt 0.562500 0.062500
vt 0.562500 0.562500
vt 0.562500 0.500000
vt 0.578125 1.000000
vt 0.562500 0.937500
vt 0.578125 0.000000
vt 0.562500 0.437500
vt 0.562500 0.875000
vt 0.562500 0.375000
vt 0.562500 0.812500
vt 0.562500 0.312500
vt 0.562500 0.750000
vt 0.562500 0.250000
vt 0.562500 0.687500
vt 0.562500 0.187500
vt 0.562500 0.625000
vt 0.531250 0.812500
vt 0.531250 0.750000
vt 0.531250 0.312500
vt 0.531250 0.250000
vt 0.531250 0.687500
vt 0.531250 0.187500
vt 0.531250 0.625000
vt 0.531250 0.125000
vt 0.531250 0.562500
vt 0.531250 0.062500
vt 0.531250 0.500000
vt 0.546875 1.000000
vt 0.531250 0.937500
vt 0.546875 0.000000
vt 0.531250 0.437500
vt 0.531250 0.875000
vt 0.531250 0.375000
vt 0.500000 0.562500
vt 0.500000 0.500000
vt 0.515625 1.000000
vt 0.500000 0.937500
vt 0.515625 0.000000
vt 0.500000 0.062500
vt 0.500000 0.437500
vt 0.500000 0.875000
vt 0.500000 0.375000
vt 0.500000 0.812500
vt 0.500000 0.312500
vt 0.500000 0.750000
vt 0.500000 0.250000
vt 0.500000 0.687500
vt 0.500000 0.187500
vt 0.500000 0.625000
vt 0.500000 0.125000
vt 0.468750 0.312500
vt 0.468750 0.250000
vt 0.468750 0.750000
vt 0.468750 0.687500
vt 0.468750 0.187500
vt 0.468750 0.625000
vt 0.468750 0.125000
vt 0.468750 0.562500
vt 0.468750 0.062500
vt 0.468750 0.500000
vt 0.484375 1.000000
vt 0.468750 0.937500
vt 0.484375 0.000000
vt 0.468750 0.437500
vt 0.468750 0.875000
vt 0.468750 0.375000
vt 0.468750 0.812500
vt 0.453125 1.000000
vt 0.437500 0.937500
vt 0.453125 0.000000
vt 0.437500 0.062500
vt 0.437500 0.500000
vt 0.437500 0.437500
vt 0.437500 0.875000
vt 0.437500 0.375000
vt 0.437500 0.812500
vt 0.437500 0.312500
vt 0.437500 0.750000
vt 0.437500 0.250000
vt 0.437500 0.687500
vt 0.437500 0.187500
vt 0.437500 0.625000
vt 0.437500 0.125000
vt 0.437500 0.562500
vt 0.406250 0.750000
vt 0.406250 0.687500
vt 0.406250 0.250000
vt 0.406250 0.187500
vt 0.406250 0.625000
vt 0.406250 0.125000
vt 0.406250 0.562500
vt 0.406250 0.062500
vt 0.406250 0.500000
vt 0.421875 1.000000
vt 0.406250 0.937500
vt 0.421875 0.000000
vt 0.406250 0.437500
vt 0.406250 0.875000
vt 0.406250 0.375000
vt 0.406250 0.812500
vt 0.406250 0.312500
vt 0.375000 0.500000
vt 0.375000 0.437500
vt 0.375000 0.937500
vt 0.375000 0.875000
vt 0.375000 0.375000
vt 0.375000 0.812500
vt 0.375000 0.312500
vt 0.375000 0.750000
vt 0.375000 0.250000
vt 0.375000 0.687500
vt 0.375000 0.187500
vt 0.375000 0.625000
vt 0.375000 0.125000
vt 0.375000 0.562500
vt 0.375000 0.062500
vt 0.390625 1.000000
vt 0.390625 0.000000
vt 0.343750 0.250000
vt 0.343750 0.187500
vt 0.343750 0.687500
vt 0.343750 0.625000
vt 0.343750 0.125000
vt 0.343750 0.562500
vt 0.343750 0.062500
vt 0.343750 0.500000
vt 0.359375 1.000000
vt 0.343750 0.937500
vt 0.359375 0.000000
vt 0.343750 0.437500
vt 0.343750 0.875000
vt 0.343750 0.375000
vt 0.343750 0.812500
vt 0.343750 0.312500
vt 0.343750 0.750000
vt 0.312500 0.437500
vt 0.312500 0.375000
vt 0.312500 0.875000
vt 0.312500 0.812500
vt 0.312500 0.312500
vt 0.312500 0.750000
vt 0.312500 0.250000
vt 0.312500 0.687500
vt 0.312500 0.187500
vt 0.312500 0.625000
vt 0.312500 0.125000
vt 0.312500 0.562500
vt 0.312500 0.062500
vt 0.312500 0.500000
vt 0.328125 1.000000
vt 0.312500 0.937500
vt 0.328125 0.000000
vt 0.281250 0.187500
vt 0.281250 0.125000
vt 0.281250 0.625000
vt 0.281250 0.562500
vt 0.281250 0.062500
vt 0.281250 0.500000
vt 0.296875 1.000000
vt 0.281250 0.937500
vt 0.296875 0.000000
vt 0.281250 0.437500
vt 0.281250 0.875000
vt 0.281250 0.375000
vt 0.281250 0.812500
vt 0.281250 0.312500
vt 0.281250 0.750000
vt 0.281250 0.250000
vt 0.281250 0.687500
vt 0.250000 0.875000
vt 0.250000 0.812500
vt 0.250000 0.375000
vt 0.250000 0.312500
vt 0.250000 0.750000
vt 0.250000 0.250000
vt 0.250000 0.687500
vt 0.250000 0.187500
vt 0.250000 0.625000
vt 0.250000 0.125000
vt 0.250000 0.562500
vt 0.250000 0.062500
vt 0.250000 0.500000
vt 0.265625 1.000000
vt 0.250000 0.937500
vt 0.265625 0.000000
vt 0.250000 0.437500
vt 0.218750 0.625000
vt 0.218750 0.562500
vt 0.218750 0.125000
vt 0.218750 0.062500
vt 0.218750 0.500000
vt 0.234375 1.000000
vt 0.218750 0.937500
vt 0.234375 0.000000
vt 0.218750 0.437500
vt 0.218750 0.875000
vt 0.218750 0.375000
vt 0.218750 0.812500
vt 0.218750 0.312500
vt 0.218750 0.750000
vt 0.218750 0.250000
vt 0.218750 0.687500
vt 0.218750 0.187500
vt 0.187500 0.375000
vt 0.187500 0.312500
vt 0.187500 0.812500
vt 0.187500 0.750000
vt 0.187500 0.250000
vt 0.187500 0.687500
vt 0.187500 0.187500
vt 0.187500 0.625000
vt 0.187500 0.125000
vt 0.187500 0.562500
vt 0.187500 0.062500
vt 0.187500 0.500000
vt 0.203125 1.000000
vt 0.187500 0.937500
vt 0.203125 0.000000
vt 0.187500 0.437500
vt 0.187500 0.875000
vt 0.156250 0.125000
vt 0.156250 0.062500
vt 0.156250 0.562500
vt 0.156250 0.500000
vt 0.171875 1.000000
vt 0.156250 0.937500
vt 0.171875 0.000000
vt 0.156250 0.437500
vt 0.156250 0.875000
vt 0.156250 0.375000
vt 0.156250 0.812500
vt 0.156250 0.312500
vt 0.156250 0.750000
vt 0.156250 0.250000
vt 0.156250 0.687500
vt 0.156250 0.187500
vt 0.156250 0.625000
vt 0.125000 0.812500
vt 0.125000 0.750000
vt 0.125000 0.312500
vt 0.125000 0.250000
vt 0.125000 0.687500
vt 0.125000 0.187500
vt 0.125000 0.625000
vt 0.125000 0.125000
vt 0.125000 0.562500
vt 0.125000 0.062500
vt 0.125000 0.500000
vt 0.140625 1.000000
vt 0.125000 0.937500
vt 0.140625 0.000000
vt 0.125000 0.437500
vt 0.125000 0.875000
vt 0.125000 0.375000
vt 0.093750 0.562500
vt 0.093750 0.500000
vt 0.109375 1.000000
vt 0.093750 0.937500
vt 0.109375 0.000000
vt 0.093750 0.062500
vt 0.093750 0.437500
vt 0.093750 0.875000
vt 0.093750 0.375000
vt 0.093750 0.812500
vt 0.093750 0.312500
vt 0.093750 0.750000
vt 0.093750 0.250000
vt 0.093750 0.687500
vt 0.093750 0.187500
vt 0.093750 0.625000
vt 0.093750 0.125000
vt 0.062500 0.312500
vt 0.062500 0.250000
vt 0.062500 0.750000
vt 0.062500 0.687500
vt 0.062500 0.187500
vt 0.062500 0.625000
vt 0.062500 0.125000
vt 0.062500 0.562500
vt 0.062500 0.062500
vt 0.062500 0.500000
vt 0.078125 1.000000
vt 0.062500 0.937500
vt 0.078125 0.000000
vt 0.062500 0.437500
vt 0.062500 0.875000
vt 0.062500 0.375000
vt 0.062500 0.812500
vt 0.046875 0.000000
vt 0.031250 0.062500
vt 0.031250 0.500000
vt 0.031250 0.437500
vt 0.031250 0.937500
vt 0.031250 0.875000
vt 0.031250 0.375000
vt 0.031250 0.812500
vt 0.031250 0.312500
vt 0.031250 0.750000
vt 0.031250 0.250000
vt 0.031250 0.687500
vt 0.031250 0.187500
vt 0.031250 0.625000
vt 0.031250 0.125000
vt 0.031250 0.562500
vt 0.046875 1.000000
vt 0.000000 0.250000
vt 0.000000 0.187500
vt 0.000000 0.687500
vt 0.000000 0.625000
vt 0.000000 0.125000
vt 0.000000 0.562500
vt 0.000000 0.062500
vt 0.000000 0.500000
vt 0.015625 1.000000
vt 0.000000 0.937500
vt 0.015625 0.000000
vt 0.000000 0.437500
vt 0.000000 0.875000
vt 0.000000 0.375000
vt 0.000000 0.812500
vt 0.000000 0.312500
vt 0.000000 0.750000
vt 1.000000 0.875000
vt 1.000000 0.937500
vt 0.968750 0.937500
vt 0.968750 0.875000
vt 1.000000 0.375000
vt 1.000000 0.437500
vt 0.968750 0.437500
vt 0.968750 0.375000
vt 1.000000 0.812500
vt 0.968750 0.812500
vt 1.000000 0.312500
vt 0.968750 0.312500
vt 1.000000 0.750000
vt 0.968750 0.750000
vt 1.000000 0.250000
vt 0.968750 0.250000
vt 1.000000 0.687500
vt 0.968750 0.687500
vt 1.000000 0.187500
vt 0.968750 0.187500
vt 1.000000 0.625000
vt 0.968750 0.625000
vt 1.000000 0.125000
vt 0.968750 0.125000
vt 1.000000 0.562500
vt 0.968750 0.562500
vt 1.000000 0.062500
vt 0.968750 0.062500
vt 1.000000 0.500000
vt 0.968750 0.500000
vt 0.984375 1.000000
vt 0.984375 0.000000
vt 0.937500 0.687500
vt 0.937500 0.625000
vt 0.937500 0.187500
vt 0.937500 0.125000
vt 0.937500 0.562500
vt 0.937500 0.062500
vt 0.937500 0.500000
vt 0.953125 1.000000
vt 0.937500 0.937500
vt 0.953125 0.000000
vt 0.937500 0.437500
vt 0.937500 0.875000
vt 0.937500 0.375000
vt 0.937500 0.812500
vt 0.937500 0.312500
vt 0.937500 0.750000
vt 0.937500 0.250000
vt 0.906250 0.437500
vt 0.906250 0.375000
vt 0.906250 0.875000
vt 0.906250 0.812500
vt 0.906250 0.312500
vt 0.906250 0.750000
vt 0.906250 0.250000
vt 0.906250 0.687500
vt 0.906250 0.187500
vt 0.906250 0.625000
vt 0.906250 0.125000
vt 0.906250 0.562500
vt 0.906250 0.062500
vt 0.906250 0.500000
vt 0.921875 1.000000
vt 0.906250 0.937500
vt 0.921875 0.000000
vt 0.875000 0.187500
vt 0.875000 0.125000
vt 0.875000 0.625000
vt 0.875000 0.562500
vt 0.875000 0.062500
vt 0.875000 0.500000
vt 0.890625 1.000000
vt 0.875000 0.937500
vt 0.890625 0.000000
vt 0.875000 0.437500
vt 0.875000 0.875000
vt 0.875000 0.375000
vt 0.875000 0.812500
vt 0.875000 0.312500
vt 0.875000 0.750000
vt 0.875000 0.250000
vt 0.875000 0.687500
vt 0.843750 0.875000
vt 0.843750 0.812500
vt 0.843750 0.375000
vt 0.843750 0.312500
vt 0.843750 0.750000
vt 0.843750 0.250000
vt 0.843750 0.687500
vt 0.843750 0.187500
vt 0.843750 0.625000
vt 0.843750 0.125000
vt 0.843750 0.562500
vt 0.843750 0.062500
vt 0.843750 0.500000
vt 0.859375 1.000000
vt 0.843750 0.937500
vt 0.859375 0.000000
vt 0.843750 0.437500
vt 0.812500 0.625000
vt 0.812500 0.562500
vt 0.812500 0.125000
vt 0.812500 0.062500
vt 0.812500 0.500000
vt 0.828125 1.000000
vt 0.812500 0.937500
vt 0.828125 0.000000
vt 0.812500 0.437500
vt 0.812500 0.875000
vt 0.812500 0.375000
vt 0.812500 0.812500
vt 0.812500 0.312500
vt 0.812500 0.750000
vt 0.812500 0.250000
vt 0.812500 0.687500
vt 0.812500 0.187500
vt 0.781250 0.375000
vt 0.781250 0.312500
vt 0.781250 0.812500
vt 0.781250 0.750000
vt 0.781250 0.250000
vt 0.781250 0.687500
vt 0.781250 0.187500
vt 0.781250 0.625000
vt 0.781250 0.125000
vt 0.781250 0.562500
vt 0.781250 0.062500
vt 0.781250 0.500000
vt 0.796875 1.000000
vt 0.781250 0.937500
vt 0.796875 0.000000
vt 0.781250 0.437500
vt 0.781250 0.875000
vt 0.765625 1.000000
vt 0.765625 0.000000
s 0
usemtl マテリアル
f 482/1/1 481/2/1 20/3/1 21/4/1
f 4/5/2 3/6/2 13/7/2 14/8/2
f 474/9/3 82/10/3 7/11/3
f 308/12/4 482/1/4 21/4/4
f 5/13/5 4/5/5 14/8/5 15/14/5
f 475/15/6 474/9/6 7/11/6 8/16/6
f 478/17/7 5/13/7 15/14/7 16/18/7
f 1/19/8 475/15/8 8/16/8 9/20/8
f 6/21/9 478/17/9 16/18/9 17/22/9
f 476/23/10 1/19/10 9/20/10 10/24/10
f 479/25/11 6/21/11 17/22/11 18/26/11
f 2/27/12 476/23/12 10/24/12 11/28/12
f 480/29/13 479/25/13 18/26/13 19/30/13
f 477/31/14 2/27/14 11/28/14 12/32/14
f 481/2/15 480/29/15 19/30/15 20/3/15
f 3/6/16 477/31/16 12/32/16 13/7/16
f 12/32/17 11/28/17 26/33/17 27/34/17
f 20/3/18 19/30/18 34/35/18 35/36/18
f 13/7/19 12/32/19 27/34/19 28/37/19
f 21/4/20 20/3/20 35/36/20 36/38/20
f 14/8/21 13/7/21 28/37/21 29/39/21
f 7/11/22 82/40/22 22/41/22
f 308/42/23 21/4/23 36/38/23
f 15/14/24 14/8/24 29/39/24 30/43/24
f 8/16/25 7/11/25 22/41/25 23/44/25
f 16/18/26 15/14/26 30/43/26 31/45/26
f 9/20/27 8/16/27 23/44/27 24/46/27
f 17/22/28 16/18/28 31/45/28 32/47/28
f 10/24/29 9/20/29 24/46/29 25/48/29
f 18/26/30 17/22/30 32/47/30 33/49/30
f 11/28/31 10/24/31 25/48/31 26/33/31
f 19/30/32 18/26/32 33/49/32 34/35/32
f 31/45/33 30/43/33 45/50/33 46/51/33
f 24/46/34 23/44/34 38/52/34 39/53/34
f 32/47/35 31/45/35 46/51/35 47/54/35
f 25/48/36 24/46/36 39/53/36 40/55/36
f 33/49/37 32/47/37 47/54/37 48/56/37
f 26/33/38 25/48/38 40/55/38 41/57/38
f 34/35/39 33/49/39 48/56/39 49/58/39
f 27/34/40 26/33/40 41/57/40 42/59/40
f 35/36/41 34/35/41 49/58/41 50/60/41
f 28/37/42 27/34/42 42/59/42 43/61/42
f 36/38/43 35/36/43 50/60/43 51/62/43
f 29/39/44 28/37/44 43/61/44 44/63/44
f 22/41/45 82/64/45 37/65/45
f 308/66/46 36/38/46 51/62/46
f 30/43/47 29/39/47 44/63/47 45/50/47
f 23/44/48 22/41/48 37/65/48 38/52/48
f 50/60/49 49/58/49 64/67/49 65/68/49
f 43/61/50 42/59/50 57/69/50 58/70/50
f 51/62/51 50/60/51 65/68/51 66/71/51
f 44/63/52 43/61/52 58/70/52 59/72/52
f 37/65/53 82/73/53 52/74/53
f 308/75/54 51/62/54 66/71/54
f 45/50/55 44/63/55 59/72/55 60/76/55
f 38/52/56 37/65/56 52/74/56 53/77/56
f 46/51/57 45/50/57 60/76/57 61/78/57
f 39/53/58 38/52/58 53/77/58 54/79/58
f 47/54/59 46/51/59 61/78/59 62/80/59
f 40/55/60 39/53/60 54/79/60 55/81/60
f 48/56/61 47/54/61 62/80/61 63/82/61
f 41/57/62 40/55/62 55/81/62 56/83/62
f 49/58/63 48/56/63 63/82/63 64/67/63
f 42/59/64 41/57/64 56/83/64 57/69/64
f 62/80/65 61/78/65 76/84/65 77/85/65
f 55/81/66 54/79/66 69/86/66 70/87/66
f 63/82/67 62/80/67 77/85/67 78/88/67
f 56/83/68 55/81/68 70/87/68 71/89/68
f 64/67/69 63/82/69 78/88/69 79/90/69
f 57/69/70 56/83/70 71/89/70 72/91/70
f 65/68/71 64/67/71 79/90/71 80/92/71
f 58/70/72 57/69/72 72/91/72 73/93/72
f 66/71/73 65/68/73 80/92/73 81/94/73
f 59/72/74 58/70/74 73/93/74 74/95/74
f 52/74/75 82/96/75 67/97/75
f 308/98/76 66/71/76 81/94/76
f 60/76/77 59/72/77 74/95/77 75/99/77
f 53/77/78 52/74/78 67/97/78 68/100/78
f 61/78/79 60/76/79 75/99/79 76/84/79
f 54/79/80 53/77/80 68/100/80 69/86/80
f 81/94/81 80/92/81 96/101/81 97/102/81
f 74/95/82 73/93/82 89/103/82 90/104/82
f 67/97/83 82/105/83 83/106/83
f 308/107/84 81/94/84 97/102/84
f 75/99/85 74/95/85 90/104/85 91/108/85
f 68/100/86 67/97/86 83/106/86 84/109/86
f 76/84/87 75/99/87 91/108/87 92/110/87
f 69/86/88 68/100/88 84/109/88 85/111/88
f 77/85/89 76/84/89 92/110/89 93/112/89
f 70/87/90 69/86/90 85/111/90 86/113/90
f 78/88/91 77/85/91 93/112/91 94/114/91
f 71/89/92 70/87/92 86/113/92 87/115/92
f 79/90/93 78/88/93 94/114/93 95/116/93
f 72/91/94 71/89/94 87/115/94 88/117/94
f 80/92/95 79/90/95 95/116/95 96/101/95
f 73/93/96 72/91/96 88/117/96 89/103/96
f 86/113/97 85/111/97 100/118/97 101/119/97
f 94/114/98 93/112/98 108/120/98 109/121/98
f 87/115/99 86/113/99 101/119/99 102/122/99
f 95/116/100 94/114/100 109/121/100 110/123/100
f 88/117/101 87/115/101 102/122/101 103/124/101
f 96/101/102 95/116/102 110/123/102 111/125/102
f 89/103/103 88/117/103 103/124/103 104/126/103
f 97/102/104 96/101/104 111/125/104 112/127/104
f 90/104/105 89/103/105 104/126/105 105/128/105
f 83/106/106 82/129/106 98/130/106
f 308/131/107 97/102/107 112/127/107
f 91/108/108 90/104/108 105/128/108 106/132/108
f 84/109/109 83/106/109 98/130/109 99/133/109
f 92/110/110 91/108/110 106/132/110 107/134/110
f 85/111/111 84/109/111 99/133/111 100/118/111
f 93/112/112 92/110/112 107/134/112 108/120/112
f 105/128/113 104/126/113 119/135/113 120/136/113
f 98/130/114 82/137/114 113/138/114
f 308/139/115 112/127/115 127/140/115
f 106/132/116 105/128/116 120/136/116 121/141/116
f 99/133/117 98/130/117 113/138/117 114/142/117
f 107/134/118 106/132/118 121/141/118 122/143/118
f 100/118/119 99/133/119 114/142/119 115/144/119
f 108/120/120 107/134/120 122/143/120 123/145/120
f 101/119/121 100/118/121 115/144/121 116/146/121
f 109/121/122 108/120/122 123/145/122 124/147/122
f 102/122/123 101/119/123 116/146/123 117/148/123
f 110/123/124 109/121/124 124/147/124 125/149/124
f 103/124/125 102/122/125 117/148/125 118/150/125
f 111/125/126 110/123/126 125/149/126 126/151/126
f 104/126/127 103/124/127 118/150/127 119/135/127
f 112/127/128 111/125/128 126/151/128 127/140/128
f 124/147/129 123/145/129 138/152/129 139/153/129
f 117/148/130 116/146/130 131/154/130 132/155/130
f 125/149/131 124/147/131 139/153/131 140/156/131
f 118/150/132 117/148/132 132/155/132 133/157/132
f 126/151/133 125/149/133 140/156/133 141/158/133
f 119/135/134 118/150/134 133/157/134 134/159/134
f 127/140/135 126/151/135 141/158/135 142/160/135
f 120/136/136 119/135/136 134/159/136 135/161/136
f 113/138/137 82/162/137 128/163/137
f 308/164/138 127/140/138 142/160/138
f 121/141/139 120/136/139 135/161/139 136/165/139
f 114/142/140 113/138/140 128/163/140 129/166/140
f 122/143/141 121/141/141 136/165/141 137/167/141
f 115/144/142 114/142/142 129/166/142 130/168/142
f 123/145/143 122/143/143 137/167/143 138/152/143
f 116/146/144 115/144/144 130/168/144 131/154/144
f 128/163/145 82/169/145 143/170/145
f 308/171/146 142/160/146 157/172/146
f 136/165/147 135/161/147 150/173/147 151/174/147
f 129/166/148 128/163/148 143/170/148 144/175/148
f 137/167/149 136/165/149 151/174/149 152/176/149
f 130/168/150 129/166/150 144/175/150 145/177/150
f 138/152/151 137/167/151 152/176/151 153/178/151
f 131/154/152 130/168/152 145/177/152 146/179/152
f 139/153/153 138/152/153 153/178/153 154/180/153
f 132/155/154 131/154/154 146/179/154 147/181/154
f 140/156/155 139/153/155 154/180/155 155/182/155
f 133/157/156 132/155/156 147/181/156 148/183/156
f 141/158/157 140/156/157 155/182/157 156/184/157
f 134/159/158 133/157/158 148/183/158 149/185/158
f 142/160/159 141/158/159 156/184/159 157/172/159
f 135/161/160 134/159/160 149/185/160 150/173/160
f 147/181/161 146/179/161 161/186/161 162/187/161
f 155/182/162 154/180/162 169/188/162 170/189/162
f 148/183/163 147/181/163 162/187/163 163/190/163
f 156/184/164 155/182/164 170/189/164 171/191/164
f 149/185/165 148/183/165 163/190/165 164/192/165
f 157/172/166 156/184/166 171/191/166 172/193/166
f 150/173/167 149/185/167 164/192/167 165/194/167
f 143/170/168 82/195/168 158/196/168
f 308/197/169 157/172/169 172/193/169
f 151/174/170 150/173/170 165/194/170 166/198/170
f 144/175/171 143/170/171 158/196/171 159/199/171
f 152/176/172 151/174/172 166/198/172 167/200/172
f 145/177/173 144/175/173 159/199/173 160/201/173
f 153/178/174 152/176/174 167/200/174 168/202/174
f 146/179/175 145/177/175 160/201/175 161/186/175
f 154/180/176 153/178/176 168/202/176 169/188/176
f 166/198/177 165/194/177 180/203/177 181/204/177
f 159/199/178 158/196/178 173/205/178 174/206/178
f 167/200/179 166/198/179 181/204/179 182/207/179
f 160/201/180 159/199/180 174/206/180 175/208/180
f 168/202/181 167/200/181 182/207/181 183/209/181
f 161/186/182 160/201/182 175/208/182 176/210/182
f 169/188/183 168/202/183 183/209/183 184/211/183
f 162/187/184 161/186/184 176/210/184 177/212/184
f 170/189/185 169/188/185 184/211/185 185/213/185
f 163/190/186 162/187/186 177/212/186 178/214/186
f 171/191/187 170/189/187 185/213/187 186/215/187
f 164/192/188 163/190/188 178/214/188 179/216/188
f 172/193/189 171/191/189 186/215/189 187/217/189
f 165/194/190 164/192/190 179/216/190 180/203/190
f 158/196/191 82/218/191 173/205/191
f 308/219/192 172/193/192 187/217/192
f 185/213/193 184/211/193 199/220/193 200/221/193
f 178/214/194 177/212/194 192/222/194 193/223/194
f 186/215/195 185/213/195 200/221/195 201/224/195
f 179/216/196 178/214/196 193/223/196 194/225/196
f 187/217/197 186/215/197 201/224/197 202/226/197
f 180/203/198 179/216/198 194/225/198 195/227/198
f 173/205/199 82/228/199 188/229/199
f 308/230/200 187/217/200 202/226/200
f 181/204/201 180/203/201 195/227/201 196/231/201
f 174/206/202 173/205/202 188/229/202 189/232/202
f 182/207/203 181/204/203 196/231/203 197/233/203
f 175/208/204 174/206/204 189/232/204 190/234/204
f 183/209/205 182/207/205 197/233/205 198/235/205
f 176/210/206 175/208/206 190/234/206 191/236/206
f 184/211/207 183/209/207 198/235/207 199/220/207
f 177/212/208 176/210/208 191/236/208 192/222/208
f 197/233/209 196/231/209 211/237/209 212/238/209
f 190/234/210 189/232/210 204/239/210 205/240/210
f 198/235/211 197/233/211 212/238/211 213/241/211
f 191/236/212 190/234/212 205/240/212 206/242/212
f 199/220/213 198/235/213 213/241/213 214/243/213
f 192/222/214 191/236/214 206/242/214 207/244/214
f 200/221/215 199/220/215 214/243/215 215/245/215
f 193/223/216 192/222/216 207/244/216 208/246/216
f 201/224/217 200/221/217 215/245/217 216/247/217
f 194/225/218 193/223/218 208/246/218 209/248/218
f 202/226/219 201/224/219 216/247/219 217/249/219
f 195/227/220 194/225/220 209/248/220 210/250/220
f 188/229/221 82/251/221 203/252/221
f 308/253/222 202/226/222 217/249/222
f 196/231/223 195/227/223 210/250/223 211/237/223
f 189/232/224 188/229/224 203/252/224 204/239/224
f 216/247/225 215/245/225 230/254/225 231/255/225
f 209/248/226 208/246/226 223/256/226 224/257/226
f 217/249/227 216/247/227 231/255/227 232/258/227
f 210/250/228 209/248/228 224/257/228 225/259/228
f 203/252/229 82/260/229 218/261/229
f 308/262/230 217/249/230 232/258/230
f 211/237/231 210/250/231 225/259/231 226/263/231
f 204/239/232 203/252/232 218/261/232 219/264/232
f 212/238/233 211/237/233 226/263/233 227/265/233
f 205/240/234 204/239/234 219/264/234 220/266/234
f 213/241/235 212/238/235 227/265/235 228/267/235
f 206/242/236 205/240/236 220/266/236 221/268/236
f 214/243/237 213/241/237 228/267/237 229/269/237
f 207/244/238 206/242/238 221/268/238 222/270/238
f 215/245/239 214/243/239 229/269/239 230/254/239
f 208/246/240 207/244/240 222/270/240 223/256/240
f 220/266/241 219/264/241 234/271/241 235/272/241
f 228/267/242 227/265/242 242/273/242 243/274/242
f 221/268/243 220/266/243 235/272/243 236/275/243
f 229/269/244 228/267/244 243/274/244 244/276/244
f 222/270/245 221/268/245 236/275/245 237/277/245
f 230/254/246 229/269/246 244/276/246 245/278/246
f 223/256/247 222/270/247 237/277/247 238/279/247
f 231/255/248 230/254/248 245/278/248 246/280/248
f 224/257/249 223/256/249 238/279/249 239/281/249
f 232/258/250 231/255/250 246/280/250 247/282/250
f 225/259/251 224/257/251 239/281/251 240/283/251
f 218/261/252 82/284/252 233/285/252
f 308/286/253 232/258/253 247/282/253
f 226/263/254 225/259/254 240/283/254 241/287/254
f 219/264/255 218/261/255 233/285/255 234/271/255
f 227/265/256 226/263/256 241/287/256 242/273/256
f 239/281/257 238/279/257 253/288/257 254/289/257
f 247/282/258 246/280/258 261/290/258 262/291/258
f 240/283/259 239/281/259 254/289/259 255/292/259
f 233/285/260 82/293/260 248/294/260
f 308/295/261 247/282/261 262/291/261
f 241/287/262 240/283/262 255/292/262 256/296/262
f 234/271/263 233/285/263 248/294/263 249/297/263
f 242/273/264 241/287/264 256/296/264 257/298/264
f 235/272/265 234/271/265 249/297/265 250/299/265
f 243/274/266 242/273/266 257/298/266 258/300/266
f 236/275/267 235/272/267 250/299/267 251/301/267
f 244/276/268 243/274/268 258/300/268 259/302/268
f 237/277/269 236/275/269 251/301/269 252/303/269
f 245/278/270 244/276/270 259/302/270 260/304/270
f 238/279/271 237/277/271 252/303/271 253/288/271
f 246/280/272 245/278/272 260/304/272 261/290/272
f 258/300/273 257/298/273 272/305/273 273/306/273
f 251/301/274 250/299/274 265/307/274 266/308/274
f 259/302/275 258/300/275 273/306/275 274/309/275
f 252/303/276 251/301/276 266/308/276 267/310/276
f 260/304/277 259/302/277 274/309/277 275/311/277
f 253/288/278 252/303/278 267/310/278 268/312/278
f 261/290/279 260/304/279 275/311/279 276/313/279
f 254/289/280 253/288/280 268/312/280 269/314/280
f 262/291/281 261/290/281 276/313/281 277/315/281
f 255/292/282 254/289/282 269/314/282 270/316/282
f 248/294/283 82/317/283 263/318/283
f 308/319/284 262/291/284 277/315/284
f 256/296/285 255/292/285 270/316/285 271/320/285
f 249/297/286 248/294/286 263/318/286 264/321/286
f 257/298/287 256/296/287 271/320/287 272/305/287
f 250/299/288 249/297/288 264/321/288 265/307/288
f 277/315/289 276/313/289 291/322/289 292/323/289
f 270/316/290 269/314/290 284/324/290 285/325/290
f 263/318/291 82/326/291 278/327/291
f 308/328/292 277/315/292 292/323/292
f 271/320/293 270/316/293 285/325/293 286/329/293
f 264/321/294 263/318/294 278/327/294 279/330/294
f 272/305/295 271/320/295 286/329/295 287/331/295
f 265/307/296 264/321/296 279/330/296 280/332/296
f 273/306/297 272/305/297 287/331/297 288/333/297
f 266/308/298 265/307/298 280/332/298 281/334/298
f 274/309/299 273/306/299 288/333/299 289/335/299
f 267/310/300 266/308/300 281/334/300 282/336/300
f 275/311/301 274/309/301 289/335/301 290/337/301
f 268/312/302 267/310/302 282/336/302 283/338/302
f 276/313/303 275/311/303 290/337/303 291/322/303
f 269/314/304 268/312/304 283/338/304 284/324/304
f 281/334/305 280/332/305 295/339/305 296/340/305
f 289/335/306 288/333/306 303/341/306 304/342/306
f 282/336/307 281/334/307 296/340/307 297/343/307
f 290/337/308 289/335/308 304/342/308 305/344/308
f 283/338/309 282/336/309 297/343/309 298/345/309
f 291/322/310 290/337/310 305/344/310 306/346/310
f 284/324/311 283/338/311 298/345/311 299/347/311
f 292/323/312 291/322/312 306/346/312 307/348/312
f 285/325/313 284/324/313 299/347/313 300/349/313
f 278/327/314 82/350/314 293/351/314
f 308/352/315 292/323/315 307/348/315
f 286/329/316 285/325/316 300/349/316 301/353/316
f 279/330/317 278/327/317 293/351/317 294/354/317
f 287/331/318 286/329/318 301/353/318 302/355/318
f 280/332/319 279/330/319 294/354/319 295/339/319
f 288/333/320 287/331/320 302/355/320 303/341/320
f 300/349/321 299/347/321 315/356/321 316/357/321
f 293/351/322 82/358/322 309/359/322
f 308/360/323 307/348/323 323/361/323
f 301/353/324 300/349/324 316/357/324 317/362/324
f 294/354/325 293/351/325 309/359/325 310/363/325
f 302/355/326 301/353/326 317/362/326 318/364/326
f 295/339/327 294/354/327 310/363/327 311/365/327
f 303/341/328 302/355/328 318/364/328 319/366/328
f 296/340/329 295/339/329 311/365/329 312/367/329
f 304/342/330 303/341/330 319/366/330 320/368/330
f 297/343/331 296/340/331 312/367/331 313/369/331
f 305/344/332 304/342/332 320/368/332 321/370/332
f 298/345/333 297/343/333 313/369/333 314/371/333
f 306/346/334 305/344/334 321/370/334 322/372/334
f 299/347/335 298/345/335 314/371/335 315/356/335
f 307/348/336 306/346/336 322/372/336 323/361/336
f 320/368/337 319/366/337 334/373/337 335/374/337
f 313/369/338 312/367/338 327/375/338 328/376/338
f 321/370/339 320/368/339 335/374/339 336/377/339
f 314/371/340 313/369/340 328/376/340 329/378/340
f 322/372/341 321/370/341 336/377/341 337/379/341
f 315/356/342 314/371/342 329/378/342 330/380/342
f 323/361/343 322/372/343 337/379/343 338/381/343
f 316/357/344 315/356/344 330/380/344 331/382/344
f 309/359/345 82/383/345 324/384/345
f 308/385/346 323/361/346 338/381/346
f 317/362/347 316/357/347 331/382/347 332/386/347
f 310/363/348 309/359/348 324/384/348 325/387/348
f 318/364/349 317/362/349 332/386/349 333/388/349
f 311/365/350 310/363/350 325/387/350 326/389/350
f 319/366/351 318/364/351 333/388/351 334/373/351
f 312/367/352 311/365/352 326/389/352 327/375/352
f 308/390/353 338/381/353 353/391/353
f 332/386/354 331/382/354 346/392/354 347/393/354
f 325/387/355 324/384/355 339/394/355 340/395/355
f 333/388/356 332/386/356 347/393/356 348/396/356
f 326/389/357 325/387/357 340/395/357 341/397/357
f 334/373/358 333/388/358 348/396/358 349/398/358
f 327/375/359 326/389/359 341/397/359 342/399/359
f 335/374/360 334/373/360 349/398/360 350/400/360
f 328/376/361 327/375/361 342/399/361 343/401/361
f 336/377/362 335/374/362 350/400/362 351/402/362
f 329/378/363 328/376/363 343/401/363 344/403/363
f 337/379/364 336/377/364 351/402/364 352/404/364
f 330/380/365 329/378/365 344/403/365 345/405/365
f 338/381/366 337/379/366 352/404/366 353/391/366
f 331/382/367 330/380/367 345/405/367 346/392/367
f 324/384/368 82/406/368 339/394/368
f 351/402/369 350/400/369 365/407/369 366/408/369
f 344/403/370 343/401/370 358/409/370 359/410/370
f 352/404/371 351/402/371 366/408/371 367/411/371
f 345/405/372 344/403/372 359/410/372 360/412/372
f 353/391/373 352/404/373 367/411/373 368/413/373
f 346/392/374 345/405/374 360/412/374 361/414/374
f 339/394/375 82/415/375 354/416/375
f 308/417/376 353/391/376 368/413/376
f 347/393/377 346/392/377 361/414/377 362/418/377
f 340/395/378 339/394/378 354/416/378 355/419/378
f 348/396/379 347/393/379 362/418/379 363/420/379
f 341/397/380 340/395/380 355/419/380 356/421/380
f 349/398/381 348/396/381 363/420/381 364/422/381
f 342/399/382 341/397/382 356/421/382 357/423/382
f 350/400/383 349/398/383 364/422/383 365/407/383
f 343/401/384 342/399/384 357/423/384 358/409/384
f 355/424/385 354/425/385 369/426/385 370/427/385
f 363/428/386 362/429/386 377/430/386 378/431/386
f 356/432/387 355/424/387 370/427/387 371/433/387
f 364/434/388 363/428/388 378/431/388 379/435/388
f 357/436/389 356/432/389 371/433/389 372/437/389
f 365/438/390 364/434/390 379/435/390 380/439/390
f 358/440/391 357/436/391 372/437/391 373/441/391
f 366/442/392 365/438/392 380/439/392 381/443/392
f 359/444/393 358/440/393 373/441/393 374/445/393
f 367/446/394 366/442/394 381/443/394 382/447/394
f 360/448/395 359/444/395 374/445/395 375/449/395
f 368/450/396 367/446/396 382/447/396 383/451/396
f 361/452/397 360/448/397 375/449/397 376/453/397
f 354/425/398 82/454/398 369/426/398
f 308/455/399 368/450/399 383/451/399
f 362/429/400 361/452/400 376/453/400 377/430/400
f 374/445/401 373/441/401 388/456/401 389/457/401
f 382/447/402 381/443/402 396/458/402 397/459/402
f 375/449/403 374/445/403 389/457/403 390/460/403
f 383/451/404 382/447/404 397/459/404 398/461/404
f 376/453/405 375/449/405 390/460/405 391/462/405
f 369/426/406 82/463/406 384/464/406
f 308/465/407 383/451/407 398/461/407
f 377/430/408 376/453/408 391/462/408 392/466/408
f 370/427/409 369/426/409 384/464/409 385/467/409
f 378/431/410 377/430/410 392/466/410 393/468/410
f 371/433/411 370/427/411 385/467/411 386/469/411
f 379/435/412 378/431/412 393/468/412 394/470/412
f 372/437/413 371/433/413 386/469/413 387/471/413
f 380/439/414 379/435/414 394/470/414 395/472/414
f 373/441/415 372/437/415 387/471/415 388/456/415
f 381/443/416 380/439/416 395/472/416 396/458/416
f 393/468/417 392/466/417 407/473/417 408/474/417
f 386/469/418 385/467/418 400/475/418 401/476/418
f 394/470/419 393/468/419 408/474/419 409/477/419
f 387/471/420 386/469/420 401/476/420 402/478/420
f 395/472/421 394/470/421 409/477/421 410/479/421
f 388/456/422 387/471/422 402/478/422 403/480/422
f 396/458/423 395/472/423 410/479/423 411/481/423
f 389/457/424 388/456/424 403/480/424 404/482/424
f 397/459/425 396/458/425 411/481/425 412/483/425
f 390/460/426 389/457/426 404/482/426 405/484/426
f 398/461/427 397/459/427 412/483/427 413/485/427
f 391/462/428 390/460/428 405/484/428 406/486/428
f 384/464/429 82/487/429 399/488/429
f 308/489/430 398/461/430 413/485/430
f 392/466/431 391/462/431 406/486/431 407/473/431
f 385/467/432 384/464/432 399/488/432 400/475/432
f 412/483/433 411/481/433 426/490/433 427/491/433
f 405/484/434 404/482/434 419/492/434 420/493/434
f 413/485/435 412/483/435 427/491/435 428/494/435
f 406/486/436 405/484/436 420/493/436 421/495/436
f 399/488/437 82/496/437 414/497/437
f 308/498/438 413/485/438 428/494/438
f 407/473/439 406/486/439 421/495/439 422/499/439
f 400/475/440 399/488/440 414/497/440 415/500/440
f 408/474/441 407/473/441 422/499/441 423/501/441
f 401/476/442 400/475/442 415/500/442 416/502/442
f 409/477/443 408/474/443 423/501/443 424/503/443
f 402/478/444 401/476/444 416/502/444 417/504/444
f 410/479/445 409/477/445 424/503/445 425/505/445
f 403/480/446 402/478/446 417/504/446 418/506/446
f 411/481/447 410/479/447 425/505/447 426/490/447
f 404/482/448 403/480/448 418/506/448 419/492/448
f 416/502/449 415/500/449 430/507/449 431/508/449
f 424/503/450 423/501/450 438/509/450 439/510/450
f 417/504/451 416/502/451 431/508/451 432/511/451
f 425/505/452 424/503/452 439/510/452 440/512/452
f 418/506/453 417/504/453 432/511/453 433/513/453
f 426/490/454 425/505/454 440/512/454 441/514/454
f 419/492/455 418/506/455 433/513/455 434/515/455
f 427/491/456 426/490/456 441/514/456 442/516/456
f 420/493/457 419/492/457 434/515/457 435/517/457
f 428/494/458 427/491/458 442/516/458 443/518/458
f 421/495/459 420/493/459 435/517/459 436/519/459
f 414/497/460 82/520/460 429/521/460
f 308/522/461 428/494/461 443/518/461
f 422/499/462 421/495/462 436/519/462 437/523/462
f 415/500/463 414/497/463 429/521/463 430/507/463
f 423/501/464 422/499/464 437/523/464 438/509/464
f 435/517/465 434/515/465 449/524/465 450/525/465
f 443/518/466 442/516/466 457/526/466 458/527/466
f 436/519/467 435/517/467 450/525/467 451/528/467
f 429/521/468 82/529/468 444/530/468
f 308/531/469 443/518/469 458/527/469
f 437/523/470 436/519/470 451/528/470 452/532/470
f 430/507/471 429/521/471 444/530/471 445/533/471
f 438/509/472 437/523/472 452/532/472 453/534/472
f 431/508/473 430/507/473 445/533/473 446/535/473
f 439/510/474 438/509/474 453/534/474 454/536/474
f 432/511/475 431/508/475 446/535/475 447/537/475
f 440/512/476 439/510/476 454/536/476 455/538/476
f 433/513/477 432/511/477 447/537/477 448/539/477
f 441/514/478 440/512/478 455/538/478 456/540/478
f 434/515/479 433/513/479 448/539/479 449/524/479
f 442/516/480 441/514/480 456/540/480 457/526/480
f 454/536/481 453/534/481 468/541/481 469/542/481
f 447/537/482 446/535/482 461/543/482 462/544/482
f 455/538/483 454/536/483 469/542/483 470/545/483
f 448/539/484 447/537/484 462/544/484 463/546/484
f 456/540/485 455/538/485 470/545/485 471/547/485
f 449/524/486 448/539/486 463/546/486 464/548/486
f 457/526/487 456/540/487 471/547/487 472/549/487
f 450/525/488 449/524/488 464/548/488 465/550/488
f 458/527/489 457/526/489 472/549/489 473/551/489
f 451/528/490 450/525/490 465/550/490 466/552/490
f 444/530/491 82/553/491 459/554/491
f 308/555/492 458/527/492 473/551/492
f 452/532/493 451/528/493 466/552/493 467/556/493
f 445/533/494 444/530/494 459/554/494 460/557/494
f 453/534/495 452/532/495 467/556/495 468/541/495
f 446/535/496 445/533/496 460/557/496 461/543/496
f 473/551/497 472/549/497 481/2/497 482/1/497
f 466/552/498 465/550/498 3/6/498 4/5/498
f 459/554/499 82/558/499 474/9/499
f 308/559/500 473/551/500 482/1/500
f 467/556/501 466/552/501 4/5/501 5/13/501
f 460/557/502 459/554/502 474/9/502 475/15/502
f 468/541/503 467/556/503 5/13/503 478/17/503
f 461/543/504 460/557/504 475/15/504 1/19/504
f 469/542/505 468/541/505 478/17/505 6/21/505
f 462/544/506 461/543/506 1/19/506 476/23/506
f 470/545/507 469/542/507 6/21/507 479/25/507
f 463/546/508 462/544/508 476/23/508 2/27/508
f 471/547/509 470/545/509 479/25/509 480/29/509
f 464/548/510 463/546/510 2/27/510 477/31/510
f 472/549/511 471/547/511 480/29/511 481/2/511
f 465/550/512 464/548/512 477/31/512 3/6/512
l 132 483
