# Blender 4.4.1
# www.blender.org
mtllib titleFont.mtl
o テキスト
v -4.894422 1.037184 -2.759609
v -4.120422 1.037184 -2.759609
v -4.120422 -0.326816 -2.759609
v -4.912422 -0.326816 -2.759609
v -4.912422 -0.150816 -2.759609
v -4.316422 -0.150816 -2.759609
v -4.316422 0.273184 -2.759609
v -4.874422 0.273184 -2.759609
v -4.874422 0.449184 -2.759609
v -4.316422 0.449184 -2.759609
v -4.316422 0.861184 -2.759609
v -4.894422 0.861184 -2.759609
v -3.820422 1.037184 -2.759609
v -3.636422 1.037184 -2.759609
v -3.636422 -0.018816 -2.759609
v -2.712421 1.037184 -2.759609
v -2.556422 1.037184 -2.759609
v -2.556422 -0.326816 -2.759609
v -2.740421 -0.326816 -2.759609
v -2.740421 0.723184 -2.759609
v -3.652421 -0.326816 -2.759609
v -3.820422 -0.326816 -2.759609
v -1.798421 1.045184 -2.759609
v -1.660421 1.045184 -2.759609
v -1.074421 -0.326816 -2.759609
v -1.274422 -0.326816 -2.759609
v -1.446422 0.075184 -2.759609
v -2.026422 0.075184 -2.759609
v -2.208422 -0.326816 -2.759609
v -2.408422 -0.326816 -2.759609
v -1.726421 0.745184 -2.759609
v -1.946422 0.251184 -2.759609
v -1.522421 0.251184 -2.759609
v -0.438422 1.037184 -2.759609
v -0.242422 1.037184 -2.759609
v -0.242422 -0.326816 -2.759609
v -1.054421 -0.326816 -2.759609
v -1.054421 -0.150816 -2.759609
v -0.438422 -0.150816 -2.759609
v 1.451578 1.139184 -2.759610
v 1.565578 1.017184 -2.759610
v 1.526598 0.989938 -2.759610
v 1.484244 0.958720 -2.759610
v 1.439390 0.924308 -2.759610
v 1.392912 0.887480 -2.759610
v 1.345682 0.849012 -2.759610
v 1.298578 0.809684 -2.759610
v 1.252474 0.770272 -2.759610
v 1.208244 0.731554 -2.759610
v 1.166766 0.694308 -2.759610
v 1.128912 0.659314 -2.759610
v 1.095558 0.627346 -2.759610
v 1.067578 0.599184 -2.759610
v 0.941578 0.725184 -2.759610
v 0.972428 0.755062 -2.759610
v 1.008384 0.788212 -2.759610
v 1.048546 0.823902 -2.759610
v 1.092022 0.861406 -2.759610
v 1.137914 0.899992 -2.759610
v 1.185328 0.938934 -2.759610
v 1.233366 0.977500 -2.759610
v 1.281134 1.014962 -2.759610
v 1.327734 1.050590 -2.759610
v 1.372272 1.083656 -2.759610
v 1.413852 1.113430 -2.759610
v 1.623578 -0.200816 -2.759610
v 1.517578 -0.364816 -2.759610
v 1.436190 -0.348098 -2.759610
v 1.357966 -0.329076 -2.759610
v 1.282828 -0.307942 -2.759610
v 1.210690 -0.284890 -2.759610
v 1.141466 -0.260118 -2.759610
v 1.075078 -0.233816 -2.759610
v 1.011438 -0.206182 -2.759610
v 0.950466 -0.177410 -2.759610
v 0.892078 -0.147692 -2.759610
v 0.836190 -0.117224 -2.759610
v 0.782718 -0.086200 -2.759610
v 0.731578 -0.054816 -2.759610
v 0.657512 -0.005668 -2.759610
v 0.586384 0.046536 -2.759610
v 0.518298 0.101434 -2.759610
v 0.453356 0.158664 -2.759610
v 0.391666 0.217868 -2.759610
v 0.333328 0.278684 -2.759610
v 0.278450 0.340748 -2.759610
v 0.227134 0.403702 -2.759610
v 0.179484 0.467184 -2.759610
v 0.135606 0.530832 -2.759610
v 0.095602 0.594286 -2.759610
v 0.059578 0.657184 -2.759610
v 0.155578 0.827184 -2.759610
v 0.187208 0.764730 -2.759610
v 0.223948 0.700720 -2.759610
v 0.265578 0.635684 -2.759610
v 0.311874 0.570146 -2.759610
v 0.362616 0.504638 -2.759610
v 0.417578 0.439684 -2.759610
v 0.476542 0.375814 -2.759610
v 0.539282 0.313554 -2.759610
v 0.605578 0.253434 -2.759610
v 0.675208 0.195980 -2.759610
v 0.747948 0.141720 -2.759610
v 0.823578 0.091184 -2.759610
v 0.872548 0.061642 -2.759610
v 0.924504 0.032192 -2.759610
v 0.979516 0.003090 -2.759610
v 1.037652 -0.025410 -2.759610
v 1.098984 -0.053046 -2.759610
v 1.163578 -0.079566 -2.759610
v 1.231506 -0.104712 -2.759610
v 1.302838 -0.128224 -2.759610
v 1.377640 -0.149848 -2.759610
v 1.455986 -0.169326 -2.759610
v 1.537942 -0.186402 -2.759610
v 3.733578 -0.044816 -2.759610
v 3.617578 -0.174816 -2.759610
v 3.528346 -0.124654 -2.759610
v 3.440060 -0.069678 -2.759610
v 3.353328 -0.010660 -2.759610
v 3.268764 0.051628 -2.759610
v 3.186976 0.116416 -2.759610
v 3.108578 0.182934 -2.759610
v 3.034180 0.250410 -2.759610
v 2.964392 0.318072 -2.759610
v 2.899828 0.385152 -2.759610
v 2.841096 0.450878 -2.759610
v 2.788810 0.514478 -2.759610
v 2.743578 0.575184 -2.759610
v 2.737578 -0.150816 -2.759610
v 2.737926 -0.163734 -2.759610
v 2.739032 -0.175492 -2.759610
v 2.740984 -0.186098 -2.759610
v 2.743874 -0.195558 -2.759610
v 2.747792 -0.203878 -2.759610
v 2.752828 -0.211066 -2.759610
v 2.759072 -0.217130 -2.759610
v 2.766616 -0.222076 -2.759610
v 2.775546 -0.225910 -2.759610
v 2.785958 -0.228640 -2.759610
v 2.797938 -0.230274 -2.759610
v 2.811578 -0.230816 -2.759610
v 2.830838 -0.230650 -2.759610
v 2.851494 -0.230150 -2.759610
v 2.873360 -0.229316 -2.759610
v 2.896244 -0.228150 -2.759610
v 2.919964 -0.226650 -2.759610
v 2.944328 -0.224816 -2.759610
v 2.969152 -0.222650 -2.759610
v 2.994244 -0.220150 -2.759610
v 3.019422 -0.217316 -2.759610
v 3.044494 -0.214150 -2.759610
v 3.069276 -0.210650 -2.759610
v 3.093578 -0.206816 -2.759610
v 3.079578 -0.370816 -2.759610
v 3.054682 -0.372734 -2.759610
v 3.029068 -0.374484 -2.759610
v 3.002860 -0.376066 -2.759610
v 2.976170 -0.377484 -2.759610
v 2.949120 -0.378734 -2.759610
v 2.921828 -0.379816 -2.759610
v 2.894410 -0.380734 -2.759610
v 2.866986 -0.381484 -2.759610
v 2.839672 -0.382066 -2.759610
v 2.812588 -0.382484 -2.759610
v 2.785850 -0.382734 -2.759610
v 2.759578 -0.382816 -2.759610
v 2.730788 -0.381654 -2.759610
v 2.704430 -0.378186 -2.759610
v 2.680516 -0.372442 -2.759610
v 2.659060 -0.364446 -2.759610
v 2.640076 -0.354228 -2.759610
v 2.623578 -0.341816 -2.759610
v 2.609580 -0.327238 -2.759610
v 2.598096 -0.310520 -2.759610
v 2.589140 -0.291692 -2.759610
v 2.582726 -0.270780 -2.759610
v 2.578868 -0.247812 -2.759610
v 2.577578 -0.222816 -2.759610
v 2.578160 -0.157376 -2.759610
v 2.578892 -0.086622 -2.759610
v 2.579766 -0.011410 -2.759610
v 2.580764 0.067406 -2.759610
v 2.581872 0.148972 -2.759610
v 2.583078 0.232434 -2.759610
v 2.584368 0.316936 -2.759610
v 2.585726 0.401628 -2.759610
v 2.587140 0.485652 -2.759610
v 2.588596 0.568156 -2.759610
v 2.590080 0.648284 -2.759610
v 2.591578 0.725184 -2.759610
v 2.273578 0.725184 -2.759610
v 2.261146 0.725142 -2.759610
v 2.247958 0.725026 -2.759610
v 2.234172 0.724840 -2.759610
v 2.219948 0.724590 -2.759610
v 2.205448 0.724286 -2.759610
v 2.190828 0.723934 -2.759610
v 2.176250 0.723538 -2.759610
v 2.161874 0.723110 -2.759610
v 2.147860 0.722652 -2.759610
v 2.134366 0.722174 -2.759610
v 2.121552 0.721682 -2.759610
v 2.109578 0.721184 -2.759610
v 2.109578 0.889184 -2.759610
v 2.120332 0.888108 -2.759610
v 2.132448 0.886906 -2.759610
v 2.145704 0.885620 -2.759610
v 2.159874 0.884294 -2.759610
v 2.174740 0.882968 -2.759610
v 2.190078 0.881684 -2.759610
v 2.205666 0.880482 -2.759610
v 2.221282 0.879406 -2.759610
v 2.236704 0.878496 -2.759610
v 2.251708 0.877794 -2.759610
v 2.266074 0.877344 -2.759610
v 2.279578 0.877184 -2.759610
v 2.593578 0.877184 -2.759610
v 2.597578 1.071184 -2.759610
v 2.597494 1.085184 -2.759610
v 2.597244 1.099184 -2.759610
v 2.596828 1.113184 -2.759610
v 2.596244 1.127184 -2.759610
v 2.595494 1.141184 -2.759610
v 2.594578 1.155184 -2.759610
v 2.593494 1.169184 -2.759610
v 2.592244 1.183184 -2.759610
v 2.590828 1.197184 -2.759610
v 2.589244 1.211184 -2.759610
v 2.587494 1.225184 -2.759610
v 2.585578 1.239184 -2.759610
v 2.771578 1.239184 -2.759610
v 2.769658 1.228506 -2.759610
v 2.767884 1.217434 -2.759610
v 2.766234 1.205902 -2.759610
v 2.764688 1.193850 -2.759610
v 2.763228 1.181214 -2.759610
v 2.761828 1.167934 -2.759610
v 2.760470 1.153944 -2.759610
v 2.759134 1.139184 -2.759610
v 2.757796 1.123590 -2.759610
v 2.756440 1.107100 -2.759610
v 2.755040 1.089652 -2.759610
v 2.753578 1.071184 -2.759610
v 2.747578 0.877184 -2.759610
v 3.475578 0.877184 -2.759610
v 3.491116 0.877306 -2.759610
v 3.506708 0.877656 -2.759610
v 3.522328 0.878214 -2.759610
v 3.537948 0.878962 -2.759610
v 3.553542 0.879874 -2.759610
v 3.569078 0.880934 -2.759610
v 3.584532 0.882118 -2.759610
v 3.599874 0.883406 -2.759610
v 3.615078 0.884778 -2.759610
v 3.630116 0.886212 -2.759610
v 3.644958 0.887686 -2.759610
v 3.659578 0.889184 -2.759610
v 3.659578 0.719184 -2.759610
v 3.644154 0.720142 -2.759610
v 3.628846 0.721016 -2.759610
v 3.613610 0.721808 -2.759610
v 3.598392 0.722516 -2.759610
v 3.583148 0.723142 -2.759610
v 3.567828 0.723684 -2.759610
v 3.552382 0.724142 -2.759610
v 3.536764 0.724516 -2.759610
v 3.520922 0.724808 -2.759610
v 3.504810 0.725016 -2.759610
v 3.488378 0.725142 -2.759610
v 3.471578 0.725184 -2.759610
v 2.813578 0.725184 -2.759610
v 2.857118 0.663398 -2.759610
v 2.908392 0.598564 -2.759610
v 2.966890 0.531464 -2.759610
v 3.032096 0.462888 -2.759610
v 3.103498 0.393616 -2.759610
v 3.180578 0.324434 -2.759610
v 3.262826 0.256126 -2.759610
v 3.349726 0.189480 -2.759610
v 3.440766 0.125278 -2.759610
v 3.535430 0.064304 -2.759610
v 3.633206 0.007344 -2.759610
v 4.157578 -0.058816 -2.759610
v 4.053578 0.077184 -2.759610
v 4.098544 0.107448 -2.759610
v 4.140810 0.135470 -2.759610
v 4.180923 0.161590 -2.759610
v 4.219430 0.186146 -2.759610
v 4.256882 0.209480 -2.759610
v 4.293828 0.231934 -2.759610
v 4.330816 0.253844 -2.759610
v 4.368392 0.275554 -2.759610
v 4.407110 0.297402 -2.759610
v 4.447515 0.319730 -2.759610
v 4.490154 0.342876 -2.759610
v 4.535578 0.367184 -2.759610
v 4.639578 0.249184 -2.759610
v 4.593925 0.224560 -2.759610
v 4.550680 0.200536 -2.759610
v 4.509422 0.176872 -2.759610
v 4.469726 0.153332 -2.759610
v 4.431170 0.129682 -2.759610
v 4.393328 0.105684 -2.759610
v 4.355778 0.081102 -2.759610
v 4.318096 0.055702 -2.759610
v 4.279860 0.029246 -2.759610
v 4.240644 0.001498 -2.759610
v 4.200024 -0.027778 -2.759610
v 4.251578 0.883184 -2.759610
v 4.355578 0.983184 -2.759610
v 4.364322 0.980846 -2.759610
v 4.373522 0.978822 -2.759610
v 4.383140 0.977090 -2.759610
v 4.393134 0.975628 -2.759610
v 4.403461 0.974416 -2.759610
v 4.414078 0.973434 -2.759610
v 4.424946 0.972660 -2.759610
v 4.436022 0.972072 -2.759610
v 4.447266 0.971652 -2.759610
v 4.458634 0.971378 -2.759610
v 4.470086 0.971228 -2.759610
v 4.481578 0.971184 -2.759610
v 4.811578 0.971184 -2.759610
v 4.811578 1.099184 -2.759610
v 4.811494 1.113570 -2.759610
v 4.811244 1.128610 -2.759610
v 4.810828 1.144120 -2.759610
v 4.810245 1.159924 -2.759610
v 4.809494 1.175838 -2.759610
v 4.808578 1.191684 -2.759610
v 4.807494 1.207278 -2.759610
v 4.806244 1.222442 -2.759610
v 4.804828 1.236996 -2.759610
v 4.803244 1.250758 -2.759610
v 4.801494 1.263546 -2.759610
v 4.799578 1.275184 -2.759610
v 4.983578 1.275184 -2.759610
v 4.981700 1.263546 -2.759610
v 4.980060 1.250758 -2.759610
v 4.978641 1.236996 -2.759610
v 4.977430 1.222442 -2.759610
v 4.976414 1.207278 -2.759610
v 4.975578 1.191684 -2.759610
v 4.974910 1.175838 -2.759610
v 4.974392 1.159924 -2.759610
v 4.974016 1.144122 -2.759610
v 4.973764 1.128610 -2.759610
v 4.973622 1.113570 -2.759610
v 4.973578 1.099184 -2.759610
v 4.973578 0.971184 -2.759610
v 5.365578 0.971184 -2.759610
v 5.382982 0.971228 -2.759610
v 5.401976 0.971368 -2.759610
v 5.422235 0.971622 -2.759610
v 5.443430 0.971998 -2.759610
v 5.465236 0.972514 -2.759610
v 5.487329 0.973184 -2.759610
v 5.509378 0.974020 -2.759610
v 5.531060 0.975036 -2.759610
v 5.552046 0.976246 -2.759610
v 5.572014 0.977666 -2.759610
v 5.590632 0.979306 -2.759610
v 5.607578 0.981184 -2.759610
v 5.607578 0.813184 -2.759610
v 5.591050 0.814182 -2.759610
v 5.572690 0.815166 -2.759610
v 5.552828 0.816122 -2.759610
v 5.531800 0.817036 -2.759610
v 5.509940 0.817894 -2.759610
v 5.487578 0.818684 -2.759610
v 5.465050 0.819390 -2.759610
v 5.442690 0.819998 -2.759610
v 5.420828 0.820496 -2.759610
v 5.399800 0.820868 -2.759610
v 5.379940 0.821102 -2.759610
v 5.361578 0.821184 -2.759610
v 5.328136 0.821184 -2.759610
v 5.275374 0.821184 -2.759610
v 5.207140 0.821184 -2.759610
v 5.127282 0.821184 -2.759610
v 5.039646 0.821184 -2.759610
v 4.948078 0.821184 -2.759610
v 4.856428 0.821184 -2.759610
v 4.768540 0.821184 -2.759610
v 4.688266 0.821184 -2.759610
v 4.619448 0.821184 -2.759610
v 4.565936 0.821184 -2.759610
v 4.531578 0.821184 -2.759610
v 4.550452 0.796412 -2.759610
v 4.572902 0.769350 -2.759610
v 4.598672 0.740370 -2.759610
v 4.627504 0.709850 -2.759610
v 4.659142 0.678162 -2.759610
v 4.693328 0.645684 -2.759610
v 4.729806 0.612788 -2.759610
v 4.768318 0.579850 -2.759610
v 4.808610 0.547246 -2.759610
v 4.850420 0.515350 -2.759610
v 4.893497 0.484538 -2.759610
v 4.937578 0.455184 -2.759610
v 4.984530 0.425424 -2.759610
v 5.034522 0.395276 -2.759610
v 5.087766 0.364934 -2.759610
v 5.144466 0.334590 -2.759610
v 5.204836 0.304442 -2.759610
v 5.269078 0.274684 -2.759610
v 5.337404 0.245508 -2.759610
v 5.410022 0.217110 -2.759610
v 5.487140 0.189684 -2.759610
v 5.568968 0.163424 -2.759610
v 5.655710 0.138526 -2.759610
v 5.747578 0.115184 -2.759610
v 5.651578 -0.032816 -2.759610
v 5.585110 -0.012184 -2.759610
v 5.520670 0.008748 -2.759610
v 5.458204 0.030028 -2.759610
v 5.397652 0.051702 -2.759610
v 5.338962 0.073822 -2.759610
v 5.282078 0.096434 -2.759610
v 5.226944 0.119588 -2.759610
v 5.173504 0.143332 -2.759610
v 5.121704 0.167714 -2.759610
v 5.071486 0.192786 -2.759610
v 5.022796 0.218592 -2.759610
v 4.975578 0.245184 -2.759610
v 4.977578 -0.190816 -2.759610
v 4.977700 -0.208742 -2.759610
v 4.978050 -0.227390 -2.759610
v 4.978610 -0.246566 -2.759610
v 4.979356 -0.266076 -2.759610
v 4.980270 -0.285724 -2.759610
v 4.981328 -0.305316 -2.759610
v 4.982512 -0.324660 -2.759610
v 4.983800 -0.343558 -2.759610
v 4.985172 -0.361816 -2.759610
v 4.986606 -0.379242 -2.759610
v 4.988082 -0.395640 -2.759610
v 4.989578 -0.410816 -2.759610
v 4.807578 -0.410816 -2.759610
v 4.808616 -0.394800 -2.759610
v 4.809708 -0.377854 -2.759610
v 4.810828 -0.360130 -2.759610
v 4.811948 -0.341780 -2.759610
v 4.813040 -0.322958 -2.759610
v 4.814078 -0.303816 -2.759610
v 4.815032 -0.284508 -2.759610
v 4.815874 -0.265186 -2.759610
v 4.816578 -0.246004 -2.759610
v 4.817114 -0.227112 -2.759610
v 4.817458 -0.208666 -2.759610
v 4.817578 -0.190816 -2.759610
v 4.815578 0.347184 -2.759610
v 4.769942 0.379966 -2.759610
v 4.725152 0.414110 -2.759610
v 4.681390 0.449308 -2.759610
v 4.638838 0.485258 -2.759610
v 4.597674 0.521652 -2.759610
v 4.558078 0.558184 -2.759610
v 4.520234 0.594550 -2.759610
v 4.484318 0.630442 -2.759610
v 4.450516 0.665558 -2.759610
v 4.419004 0.699590 -2.759610
v 4.389964 0.732234 -2.759610
v 4.363578 0.763184 -2.759610
v 4.355340 0.772382 -2.759610
v 4.346670 0.781934 -2.759610
v 4.337640 0.791778 -2.759610
v 4.328318 0.801850 -2.759610
v 4.318774 0.812090 -2.759610
v 4.309078 0.822434 -2.759610
v 4.299298 0.832818 -2.759610
v 4.289504 0.843184 -2.759610
v 4.279766 0.853464 -2.759610
v 4.270152 0.863600 -2.759610
v 4.260734 0.873528 -2.759610
vn -0.0000 -0.0000 -1.0000
vn -0.0000 0.0001 -1.0000
vn -0.0000 -0.0001 -1.0000
vn -0.0000 0.0002 -1.0000
vn -0.0000 0.0003 -1.0000
vt 0.181818 0.000000
vt 0.909091 0.000000
vt 0.090909 0.000000
vt 0.000000 0.000000
vt 1.000000 0.000000
vt 0.818182 0.000000
vt 0.545455 0.000000
vt 0.727273 0.000000
vt 0.636364 0.000000
vt 0.454545 0.000000
vt 0.363636 0.000000
vt 0.272727 0.000000
vt 0.555556 0.000000
vt 0.333333 0.000000
vt 0.444444 0.000000
vt 0.777778 0.000000
vt 0.222222 0.000000
vt 0.111111 0.000000
vt 0.666667 0.000000
vt 0.888889 0.000000
vt 0.200000 0.000000
vt 0.100000 0.000000
vt 0.800000 0.000000
vt 0.700000 0.000000
vt 0.900000 0.000000
vt 0.400000 0.000000
vt 0.500000 0.000000
vt 0.300000 0.000000
vt 0.600000 0.000000
vt 0.013333 0.000000
vt 0.320000 0.000000
vt 0.306667 0.000000
vt 0.293333 0.000000
vt 0.026667 0.000000
vt 0.280000 0.000000
vt 0.040000 0.000000
vt 0.266667 0.000000
vt 0.053333 0.000000
vt 0.253333 0.000000
vt 0.066667 0.000000
vt 0.240000 0.000000
vt 0.080000 0.000000
vt 0.226667 0.000000
vt 0.093333 0.000000
vt 0.706667 0.000000
vt 0.680000 0.000000
vt 0.693333 0.000000
vt 0.213333 0.000000
vt 0.106667 0.000000
vt 0.120000 0.000000
vt 0.720000 0.000000
vt 0.186667 0.000000
vt 0.133333 0.000000
vt 0.146667 0.000000
vt 0.160000 0.000000
vt 0.173333 0.000000
vt 0.733333 0.000000
vt 0.746667 0.000000
vt 0.653333 0.000000
vt 0.760000 0.000000
vt 0.640000 0.000000
vt 0.773333 0.000000
vt 0.626667 0.000000
vt 0.786667 0.000000
vt 0.613333 0.000000
vt 0.813333 0.000000
vt 0.586667 0.000000
vt 0.826667 0.000000
vt 0.573333 0.000000
vt 0.840000 0.000000
vt 0.560000 0.000000
vt 0.853333 0.000000
vt 0.546667 0.000000
vt 0.866667 0.000000
vt 0.880000 0.000000
vt 0.533333 0.000000
vt 0.893333 0.000000
vt 0.906667 0.000000
vt 0.520000 0.000000
vt 0.920000 0.000000
vt 0.933333 0.000000
vt 0.506667 0.000000
vt 0.946667 0.000000
vt 0.493333 0.000000
vt 0.960000 0.000000
vt 0.480000 0.000000
vt 0.973333 0.000000
vt 0.466667 0.000000
vt 0.986667 0.000000
vt 0.453333 0.000000
vt 0.346667 0.000000
vt 0.360000 0.000000
vt 0.440000 0.000000
vt 0.426667 0.000000
vt 0.413333 0.000000
vt 0.386667 0.000000
vt 0.373333 0.000000
vt 0.700599 0.000000
vt 0.688623 0.000000
vt 0.694611 0.000000
vt 0.682635 0.000000
vt 0.706587 0.000000
vt 0.676647 0.000000
vt 0.712575 0.000000
vt 0.670659 0.000000
vt 0.718563 0.000000
vt 0.664671 0.000000
vt 0.724551 0.000000
vt 0.658683 0.000000
vt 0.730539 0.000000
vt 0.652695 0.000000
vt 0.736527 0.000000
vt 0.646707 0.000000
vt 0.742515 0.000000
vt 0.640719 0.000000
vt 0.748503 0.000000
vt 0.634731 0.000000
vt 0.754491 0.000000
vt 0.628743 0.000000
vt 0.760479 0.000000
vt 0.622755 0.000000
vt 0.766467 0.000000
vt 0.616766 0.000000
vt 0.772455 0.000000
vt 0.610778 0.000000
vt 0.856287 0.000000
vt 0.844311 0.000000
vt 0.850299 0.000000
vt 0.538922 0.000000
vt 0.526946 0.000000
vt 0.532934 0.000000
vt 0.544910 0.000000
vt 0.838323 0.000000
vt 0.550898 0.000000
vt 0.832335 0.000000
vt 0.556886 0.000000
vt 0.826347 0.000000
vt 0.562874 0.000000
vt 0.820359 0.000000
vt 0.568862 0.000000
vt 0.814371 0.000000
vt 0.574850 0.000000
vt 0.808383 0.000000
vt 0.580838 0.000000
vt 0.802395 0.000000
vt 0.586826 0.000000
vt 0.796407 0.000000
vt 0.592814 0.000000
vt 0.790419 0.000000
vt 0.598802 0.000000
vt 0.784431 0.000000
vt 0.604790 0.000000
vt 0.778443 0.000000
vt 0.862275 0.000000
vt 0.868263 0.000000
vt 0.874251 0.000000
vt 0.880240 0.000000
vt 0.886228 0.000000
vt 0.892216 0.000000
vt 0.898204 0.000000
vt 0.904192 0.000000
vt 0.910180 0.000000
vt 0.916168 0.000000
vt 0.922156 0.000000
vt 0.928144 0.000000
vt 0.934132 0.000000
vt 0.455090 0.000000
vt 0.461078 0.000000
vt 0.467066 0.000000
vt 0.473054 0.000000
vt 0.479042 0.000000
vt 0.485030 0.000000
vt 0.491018 0.000000
vt 0.497006 0.000000
vt 0.502994 0.000000
vt 0.508982 0.000000
vt 0.514970 0.000000
vt 0.520958 0.000000
vt 0.940120 0.000000
vt 0.449102 0.000000
vt 0.443114 0.000000
vt 0.946108 0.000000
vt 0.437126 0.000000
vt 0.952096 0.000000
vt 0.077844 0.000000
vt 0.071856 0.000000
vt 0.083832 0.000000
vt 0.431138 0.000000
vt 0.958084 0.000000
vt 0.065868 0.000000
vt 0.425150 0.000000
vt 0.964072 0.000000
vt 0.059880 0.000000
vt 0.419162 0.000000
vt 0.970060 0.000000
vt 0.053892 0.000000
vt 0.976048 0.000000
vt 0.047904 0.000000
vt 0.413174 0.000000
vt 0.982036 0.000000
vt 0.041916 0.000000
vt 0.407186 0.000000
vt 0.988024 0.000000
vt 0.035928 0.000000
vt 0.401198 0.000000
vt 0.994012 0.000000
vt 0.029940 0.000000
vt 0.395210 0.000000
vt 0.023952 0.000000
vt 0.017964 0.000000
vt 0.389222 0.000000
vt 0.005988 0.000000
vt 0.011976 0.000000
vt 0.383234 0.000000
vt 0.089820 0.000000
vt 0.377246 0.000000
vt 0.095808 0.000000
vt 0.101796 0.000000
vt 0.107784 0.000000
vt 0.113772 0.000000
vt 0.119760 0.000000
vt 0.233533 0.000000
vt 0.221557 0.000000
vt 0.227545 0.000000
vt 0.215569 0.000000
vt 0.125749 0.000000
vt 0.209581 0.000000
vt 0.131737 0.000000
vt 0.203593 0.000000
vt 0.197605 0.000000
vt 0.137725 0.000000
vt 0.191617 0.000000
vt 0.371257 0.000000
vt 0.185629 0.000000
vt 0.143713 0.000000
vt 0.179641 0.000000
vt 0.173653 0.000000
vt 0.149701 0.000000
vt 0.167665 0.000000
vt 0.161677 0.000000
vt 0.155689 0.000000
vt 0.365269 0.000000
vt 0.359281 0.000000
vt 0.353293 0.000000
vt 0.347305 0.000000
vt 0.341317 0.000000
vt 0.335329 0.000000
vt 0.329341 0.000000
vt 0.323353 0.000000
vt 0.239521 0.000000
vt 0.317365 0.000000
vt 0.245509 0.000000
vt 0.251497 0.000000
vt 0.257485 0.000000
vt 0.263473 0.000000
vt 0.311377 0.000000
vt 0.269461 0.000000
vt 0.275449 0.000000
vt 0.281437 0.000000
vt 0.287425 0.000000
vt 0.305389 0.000000
vt 0.293413 0.000000
vt 0.299401 0.000000
vt 0.286458 0.000000
vt 0.276042 0.000000
vt 0.281250 0.000000
vt 0.270833 0.000000
vt 0.291667 0.000000
vt 0.265625 0.000000
vt 0.296875 0.000000
vt 0.260417 0.000000
vt 0.302083 0.000000
vt 0.255208 0.000000
vt 0.307292 0.000000
vt 0.250000 0.000000
vt 0.312500 0.000000
vt 0.244792 0.000000
vt 0.317708 0.000000
vt 0.239583 0.000000
vt 0.322917 0.000000
vt 0.234375 0.000000
vt 0.328125 0.000000
vt 0.229167 0.000000
vt 0.223958 0.000000
vt 0.338542 0.000000
vt 0.218750 0.000000
vt 0.343750 0.000000
vt 0.213542 0.000000
vt 0.348958 0.000000
vt 0.208333 0.000000
vt 0.145833 0.000000
vt 0.135417 0.000000
vt 0.140625 0.000000
vt 0.421875 0.000000
vt 0.411458 0.000000
vt 0.416667 0.000000
vt 0.151042 0.000000
vt 0.406250 0.000000
vt 0.156250 0.000000
vt 0.401042 0.000000
vt 0.161458 0.000000
vt 0.395833 0.000000
vt 0.166667 0.000000
vt 0.390625 0.000000
vt 0.171875 0.000000
vt 0.385417 0.000000
vt 0.177083 0.000000
vt 0.380208 0.000000
vt 0.182292 0.000000
vt 0.375000 0.000000
vt 0.187500 0.000000
vt 0.369792 0.000000
vt 0.192708 0.000000
vt 0.364583 0.000000
vt 0.197917 0.000000
vt 0.359375 0.000000
vt 0.203125 0.000000
vt 0.354167 0.000000
vt 0.427083 0.000000
vt 0.432292 0.000000
vt 0.437500 0.000000
vt 0.442708 0.000000
vt 0.447917 0.000000
vt 0.994792 0.000000
vt 0.453125 0.000000
vt 0.458333 0.000000
vt 0.989583 0.000000
vt 0.463542 0.000000
vt 0.468750 0.000000
vt 0.984375 0.000000
vt 0.473958 0.000000
vt 0.479167 0.000000
vt 0.979167 0.000000
vt 0.484375 0.000000
vt 0.973958 0.000000
vt 0.489583 0.000000
vt 0.505208 0.000000
vt 0.510417 0.000000
vt 0.515625 0.000000
vt 0.526042 0.000000
vt 0.531250 0.000000
vt 0.536458 0.000000
vt 0.541667 0.000000
vt 0.546875 0.000000
vt 0.968750 0.000000
vt 0.494792 0.000000
vt 0.520833 0.000000
vt 0.552083 0.000000
vt 0.963542 0.000000
vt 0.958333 0.000000
vt 0.557292 0.000000
vt 0.953125 0.000000
vt 0.947917 0.000000
vt 0.942708 0.000000
vt 0.562500 0.000000
vt 0.937500 0.000000
vt 0.567708 0.000000
vt 0.932292 0.000000
vt 0.572917 0.000000
vt 0.927083 0.000000
vt 0.578125 0.000000
vt 0.921875 0.000000
vt 0.583333 0.000000
vt 0.916667 0.000000
vt 0.588542 0.000000
vt 0.911458 0.000000
vt 0.593750 0.000000
vt 0.906250 0.000000
vt 0.598958 0.000000
vt 0.901042 0.000000
vt 0.604167 0.000000
vt 0.895833 0.000000
vt 0.609375 0.000000
vt 0.614583 0.000000
vt 0.890625 0.000000
vt 0.619792 0.000000
vt 0.885417 0.000000
vt 0.625000 0.000000
vt 0.880208 0.000000
vt 0.072917 0.000000
vt 0.062500 0.000000
vt 0.067708 0.000000
vt 0.630208 0.000000
vt 0.739583 0.000000
vt 0.875000 0.000000
vt 0.057292 0.000000
vt 0.635417 0.000000
vt 0.052083 0.000000
vt 0.640625 0.000000
vt 0.046875 0.000000
vt 0.041667 0.000000
vt 0.645833 0.000000
vt 0.036458 0.000000
vt 0.078125 0.000000
vt 0.651042 0.000000
vt 0.734375 0.000000
vt 0.744792 0.000000
vt 0.031250 0.000000
vt 0.083333 0.000000
vt 0.729167 0.000000
vt 0.656250 0.000000
vt 0.026042 0.000000
vt 0.088542 0.000000
vt 0.723958 0.000000
vt 0.661458 0.000000
vt 0.020833 0.000000
vt 0.093750 0.000000
vt 0.718750 0.000000
vt 0.015625 0.000000
vt 0.098958 0.000000
vt 0.713542 0.000000
vt 0.671875 0.000000
vt 0.010417 0.000000
vt 0.104167 0.000000
vt 0.708333 0.000000
vt 0.677083 0.000000
vt 0.005208 0.000000
vt 0.109375 0.000000
vt 0.703125 0.000000
vt 0.114583 0.000000
vt 0.119792 0.000000
vt 0.125000 0.000000
vt 0.130208 0.000000
vt 0.697917 0.000000
vt 0.692708 0.000000
vt 0.687500 0.000000
vt 0.682292 0.000000
vt 0.750000 0.000000
vt 0.869792 0.000000
vt 0.864583 0.000000
vt 0.755208 0.000000
vt 0.859375 0.000000
vt 0.760417 0.000000
vt 0.854167 0.000000
vt 0.765625 0.000000
vt 0.848958 0.000000
vt 0.770833 0.000000
vt 0.843750 0.000000
vt 0.776042 0.000000
vt 0.838542 0.000000
vt 0.781250 0.000000
vt 0.833333 0.000000
vt 0.786458 0.000000
vt 0.828125 0.000000
vt 0.791667 0.000000
vt 0.822917 0.000000
vt 0.796875 0.000000
vt 0.817708 0.000000
vt 0.802083 0.000000
vt 0.812500 0.000000
vt 0.807292 0.000000
s 1
usemtl Material.001
f 3/1/1 11/2/1 2/3/1
f 11/2/1 1/4/1 2/3/1
f 11/2/1 12/5/1 1/4/1
f 3/1/1 10/6/1 11/2/1
f 3/1/1 7/7/1 10/6/1
f 7/7/1 9/8/1 10/6/1
f 7/7/1 8/9/1 9/8/1
f 3/1/1 6/10/1 7/7/1
f 3/1/1 5/11/1 6/10/1
f 3/1/1 4/12/1 5/11/1
f 18/13/1 16/14/1 17/15/1
f 18/13/1 20/16/1 16/14/1
f 20/16/1 15/17/1 16/14/1
f 15/17/1 13/4/1 14/18/1
f 15/17/1 22/5/1 13/4/1
f 18/13/1 19/19/1 20/16/1
f 21/20/1 15/17/1 20/16/1
f 21/20/1 22/5/1 15/17/1
f 25/21/1 23/4/1 24/22/1
f 25/21/1 31/23/1 23/4/1
f 31/23/1 30/24/1 23/4/1
f 25/21/1 33/5/1 31/23/1
f 32/25/1 30/24/1 31/23/1
f 25/21/1 27/26/1 33/5/1
f 27/26/1 32/25/1 33/5/1
f 27/26/1 28/27/1 32/25/1
f 28/27/1 30/24/1 32/25/1
f 25/21/1 26/28/1 27/26/1
f 29/29/1 30/24/1 28/27/1
f 36/26/1 34/4/1 35/21/1
f 36/26/1 39/5/1 34/4/1
f 36/26/1 38/23/1 39/5/1
f 36/26/1 37/29/1 38/23/1
f 41/30/1 65/14/1 40/4/1
f 41/30/1 64/31/1 65/14/1
f 41/30/1 63/32/1 64/31/1
f 41/30/1 62/33/1 63/32/1
f 42/34/1 62/33/1 41/30/1
f 42/34/1 61/35/1 62/33/1
f 43/36/1 61/35/1 42/34/1
f 43/36/1 60/37/1 61/35/1
f 44/38/1 60/37/1 43/36/1
f 44/38/1 59/39/1 60/37/1
f 45/40/1 59/39/1 44/38/1
f 45/40/1 58/41/1 59/39/1
f 46/42/1 58/41/1 45/40/1
f 46/42/1 57/43/1 58/41/1
f 47/44/1 57/43/1 46/42/1
f 93/45/1 91/46/1 92/47/1
f 47/44/1 56/48/1 57/43/1
f 48/49/1 56/48/1 47/44/1
f 48/49/1 55/21/1 56/48/1
f 49/50/1 55/21/1 48/49/1
f 94/51/1 91/46/1 93/45/1
f 49/50/1 54/52/1 55/21/1
f 50/53/1 54/52/1 49/50/1
f 50/53/1 51/54/1 54/52/1
f 51/54/1 52/55/1 54/52/1
f 52/55/1 53/56/1 54/52/1
f 95/57/1 91/46/1 94/51/1
f 95/57/1 90/19/1 91/46/1
f 96/58/1 90/19/1 95/57/1
f 96/58/1 89/59/1 90/19/1
f 97/60/1 89/59/1 96/58/1
f 97/60/1 88/61/1 89/59/1
f 98/62/1 88/61/1 97/60/1
f 98/62/1 87/63/1 88/61/1
f 99/64/1 87/63/1 98/62/1
f 99/64/1 86/65/1 87/63/1
f 100/23/1 86/65/1 99/64/1
f 100/23/1 85/29/1 86/65/1
f 101/66/1 85/29/1 100/23/1
f 101/66/1 84/67/1 85/29/1
f 102/68/1 84/67/1 101/66/1
f 102/68/1 83/69/1 84/67/1
f 103/70/1 83/69/1 102/68/1
f 103/70/1 82/71/1 83/69/1
f 104/72/1 82/71/1 103/70/1
f 104/72/1 81/73/1 82/71/1
f 105/74/1 81/73/1 104/72/1
f 106/75/1 81/73/1 105/74/1
f 106/75/1 80/76/1 81/73/1
f 107/77/1 80/76/1 106/75/1
f 108/78/1 80/76/1 107/77/1
f 108/78/1 79/79/1 80/76/1
f 109/80/1 79/79/1 108/78/1
f 110/81/1 79/79/1 109/80/1
f 110/81/1 78/82/1 79/79/1
f 111/83/1 78/82/1 110/81/1
f 111/83/1 77/84/1 78/82/1
f 112/85/1 77/84/1 111/83/1
f 112/85/1 76/86/1 77/84/1
f 113/87/1 76/86/1 112/85/1
f 113/87/1 75/88/1 76/86/1
f 114/89/1 75/88/1 113/87/1
f 115/5/1 75/88/1 114/89/1
f 115/5/1 74/90/1 75/88/1
f 66/91/1 74/90/1 115/5/1
f 67/92/1 74/90/1 66/91/1
f 67/92/1 73/93/1 74/90/1
f 67/92/1 72/94/1 73/93/1
f 67/92/1 71/95/1 72/94/1
f 67/92/1 70/26/1 71/95/1
f 67/92/1 69/96/1 70/26/1
f 67/92/1 68/97/1 69/96/1
f 233/98/1 231/99/1 232/100/1
f 233/98/1 230/101/1 231/99/1
f 234/102/1 230/101/1 233/98/1
f 234/102/1 229/103/1 230/101/1
f 235/104/1 229/103/1 234/102/1
f 235/104/1 228/105/1 229/103/1
f 236/106/1 228/105/1 235/104/1
f 236/106/1 227/107/1 228/105/1
f 237/108/1 227/107/1 236/106/1
f 237/108/1 226/109/1 227/107/1
f 238/110/1 226/109/1 237/108/1
f 238/110/1 225/111/1 226/109/1
f 239/112/1 225/111/1 238/110/1
f 239/112/1 224/113/1 225/111/1
f 240/114/1 224/113/1 239/112/1
f 240/114/1 223/115/1 224/113/1
f 241/116/1 223/115/1 240/114/1
f 241/116/1 222/117/1 223/115/1
f 242/118/1 222/117/1 241/116/1
f 242/118/1 221/119/1 222/117/1
f 243/120/1 221/119/1 242/118/1
f 243/120/1 220/121/1 221/119/1
f 244/122/1 220/121/1 243/120/1
f 244/122/1 219/123/1 220/121/1
f 245/124/1 219/123/1 244/122/1
f 245/124/1 218/125/1 219/123/1
f 259/126/1 257/127/1 258/128/1
f 206/129/1 204/130/1 205/131/1
f 207/132/1 204/130/1 206/129/1
f 259/126/1 256/133/1 257/127/1
f 208/134/1 204/130/1 207/132/1
f 259/126/1 255/135/1 256/133/1
f 209/136/1 204/130/1 208/134/1
f 259/126/1 254/137/1 255/135/1
f 210/138/1 204/130/1 209/136/1
f 259/126/1 253/139/1 254/137/1
f 211/140/1 204/130/1 210/138/1
f 259/126/1 252/141/1 253/139/1
f 212/142/1 204/130/1 211/140/1
f 259/126/1 251/143/1 252/141/1
f 213/144/1 204/130/1 212/142/1
f 259/126/1 250/145/1 251/143/1
f 214/146/1 204/130/1 213/144/1
f 259/126/1 249/147/1 250/145/1
f 215/148/1 204/130/1 214/146/1
f 259/126/1 248/149/1 249/147/1
f 216/150/1 204/130/1 215/148/1
f 259/126/1 247/151/1 248/149/1
f 217/152/1 204/130/1 216/150/1
f 259/126/1 246/153/1 247/151/1
f 259/126/1 245/124/1 246/153/1
f 259/126/1 218/125/1 245/124/1
f 259/126/1 217/152/1 218/125/1
f 259/126/1 260/154/1 217/152/1
f 260/154/1 261/155/1 217/152/1
f 261/155/1 262/156/1 217/152/1
f 262/156/1 263/157/2 217/152/1
f 263/157/2 264/158/1 217/152/1
f 264/158/1 265/159/1 217/152/1
f 265/159/1 266/160/1 217/152/1
f 266/160/1 267/161/3 217/152/1
f 267/161/3 268/162/2 217/152/1
f 268/162/2 269/163/2 217/152/1
f 269/163/2 270/164/1 217/152/1
f 270/164/1 271/165/4 217/152/1
f 271/165/4 272/166/1 217/152/1
f 272/166/1 192/167/1 217/152/1
f 192/167/1 193/168/1 217/152/1
f 193/168/1 194/169/1 217/152/1
f 194/169/1 195/170/1 217/152/1
f 195/170/1 196/171/1 217/152/1
f 196/171/1 197/172/1 217/152/1
f 197/172/1 198/173/1 217/152/1
f 198/173/1 199/174/1 217/152/1
f 199/174/1 200/175/1 217/152/1
f 200/175/1 201/176/1 217/152/1
f 201/176/1 202/177/1 217/152/1
f 202/177/1 203/178/1 217/152/1
f 203/178/1 204/130/1 217/152/1
f 273/179/1 191/180/1 272/166/1
s 0
f 191/180/1 192/167/1 272/166/1
s 1
f 273/179/1 190/181/1 191/180/1
f 274/182/1 190/181/1 273/179/1
f 274/182/1 189/183/1 190/181/1
f 275/184/1 129/185/1 274/182/1
f 129/185/1 189/183/1 274/182/1
f 275/184/1 128/186/1 129/185/1
f 130/187/1 189/183/1 129/185/1
f 130/187/1 188/188/1 189/183/1
f 276/189/1 128/186/1 275/184/1
f 276/189/1 127/190/1 128/186/1
f 130/187/1 187/191/1 188/188/1
f 277/192/1 127/190/1 276/189/1
f 277/192/1 126/193/1 127/190/1
f 130/187/1 186/194/1 187/191/1
f 278/195/1 126/193/1 277/192/1
f 278/195/1 125/196/1 126/193/1
f 279/197/1 125/196/1 278/195/1
f 279/197/1 124/198/1 125/196/1
f 130/187/1 185/199/1 186/194/1
f 280/200/1 124/198/1 279/197/1
f 280/200/1 123/201/1 124/198/1
f 130/187/1 184/202/1 185/199/1
f 281/203/1 123/201/1 280/200/1
f 281/203/1 122/204/1 123/201/1
f 130/187/1 183/205/1 184/202/1
f 282/206/1 122/204/1 281/203/1
f 282/206/1 121/207/1 122/204/1
f 130/187/1 182/208/1 183/205/1
f 283/5/1 121/207/1 282/206/1
f 283/5/1 120/209/1 121/207/1
f 116/4/1 120/209/1 283/5/1
f 116/4/1 119/210/1 120/209/1
f 130/187/1 181/211/1 182/208/1
f 117/212/1 119/210/1 116/4/1
f 117/212/1 118/213/1 119/210/1
f 130/187/1 180/214/1 181/211/1
f 131/215/1 180/214/1 130/187/1
f 131/215/1 179/216/1 180/214/1
f 132/217/1 179/216/1 131/215/1
f 133/218/1 179/216/1 132/217/1
f 134/219/1 179/216/1 133/218/1
f 135/220/1 179/216/1 134/219/1
f 136/221/1 179/216/1 135/220/1
f 155/222/1 153/223/1 154/224/1
f 155/222/1 152/225/1 153/223/1
f 137/226/1 179/216/1 136/221/1
f 155/222/1 151/227/1 152/225/1
f 138/228/1 179/216/1 137/226/1
f 155/222/1 150/229/1 151/227/1
f 155/222/1 149/230/1 150/229/1
f 139/231/1 179/216/1 138/228/1
f 155/222/1 148/232/1 149/230/1
f 139/231/1 178/233/1 179/216/1
f 155/222/1 147/234/1 148/232/1
f 140/235/1 178/233/1 139/231/1
f 155/222/1 146/236/1 147/234/1
f 155/222/1 145/237/1 146/236/1
f 141/238/1 178/233/1 140/235/1
f 155/222/1 144/239/1 145/237/1
f 155/222/1 143/240/1 144/239/1
f 142/241/1 178/233/1 141/238/1
f 155/222/1 142/241/1 143/240/1
f 155/222/1 178/233/1 142/241/1
f 155/222/1 177/242/1 178/233/1
f 155/222/1 176/243/1 177/242/1
f 155/222/1 175/244/1 176/243/1
f 155/222/1 174/245/1 175/244/1
f 155/222/1 173/246/1 174/245/1
f 155/222/1 172/247/1 173/246/1
f 155/222/1 171/248/1 172/247/1
f 155/222/1 170/249/1 171/248/1
f 156/250/1 170/249/1 155/222/1
f 156/250/1 169/251/1 170/249/1
f 157/252/1 169/251/1 156/250/1
f 158/253/1 169/251/1 157/252/1
f 159/254/1 169/251/1 158/253/1
f 160/255/1 169/251/1 159/254/1
f 160/255/1 168/256/1 169/251/1
f 161/257/1 168/256/1 160/255/1
f 162/258/1 168/256/1 161/257/1
f 163/259/1 168/256/1 162/258/1
f 164/260/1 168/256/1 163/259/1
f 164/260/1 167/261/5 168/256/1
f 165/262/1 167/261/5 164/260/1
f 166/263/1 167/261/5 165/262/1
f 339/264/1 337/265/1 338/266/1
f 339/264/1 336/267/1 337/265/1
f 340/268/1 336/267/1 339/264/1
f 340/268/1 335/269/1 336/267/1
f 341/270/1 335/269/1 340/268/1
f 341/270/1 334/271/1 335/269/1
f 342/272/1 334/271/1 341/270/1
f 342/272/1 333/273/1 334/271/1
f 343/274/1 333/273/1 342/272/1
f 343/274/1 332/275/1 333/273/1
f 344/276/1 332/275/1 343/274/1
f 344/276/1 331/277/1 332/275/1
f 345/278/1 331/277/1 344/276/1
f 345/278/1 330/279/1 331/277/1
f 346/280/1 330/279/1 345/278/1
f 346/280/1 329/281/1 330/279/1
f 347/282/1 329/281/1 346/280/1
f 347/282/1 328/283/1 329/281/1
f 348/14/1 328/283/1 347/282/1
f 348/14/1 327/284/1 328/283/1
f 349/285/1 327/284/1 348/14/1
f 349/285/1 326/286/1 327/284/1
f 350/287/1 326/286/1 349/285/1
f 350/287/1 325/288/1 326/286/1
f 351/289/1 325/288/1 350/287/1
f 351/289/1 324/290/1 325/288/1
f 312/291/1 310/292/1 311/293/1
f 365/294/1 363/295/1 364/296/1
f 313/297/1 310/292/1 312/291/1
f 365/294/1 362/298/1 363/295/1
f 314/299/1 310/292/1 313/297/1
f 365/294/1 361/300/1 362/298/1
f 315/301/1 310/292/1 314/299/1
f 365/294/1 360/302/1 361/300/1
f 316/303/1 310/292/1 315/301/1
f 365/294/1 359/304/1 360/302/1
f 317/305/3 310/292/1 316/303/1
f 365/294/1 358/306/1 359/304/1
f 318/307/1 310/292/1 317/305/3
f 365/294/1 357/308/1 358/306/1
f 319/309/1 310/292/1 318/307/1
f 365/294/1 356/310/1 357/308/1
f 320/311/1 310/292/1 319/309/1
f 365/294/1 355/312/1 356/310/1
f 321/313/2 310/292/1 320/311/1
f 365/294/1 354/314/1 355/312/1
f 322/315/1 310/292/1 321/313/2
f 365/294/1 353/316/1 354/314/1
f 323/317/1 310/292/1 322/315/1
f 365/294/1 352/318/1 353/316/1
f 365/294/1 351/289/1 352/318/1
f 365/294/1 324/290/1 351/289/1
f 365/294/1 323/317/1 324/290/1
f 365/294/1 366/319/1 323/317/1
f 366/319/1 367/320/1 323/317/1
f 367/320/1 310/292/1 323/317/1
f 367/320/1 368/321/1 310/292/1
f 368/321/1 476/5/1 310/292/1
f 368/321/1 369/322/1 476/5/1
f 369/322/1 370/323/1 476/5/1
f 370/323/1 475/324/1 476/5/1
f 370/323/1 371/325/1 475/324/1
f 371/325/1 372/326/1 475/324/1
f 372/326/1 474/327/1 475/324/1
f 372/326/1 373/328/1 474/327/1
f 373/328/1 374/329/1 474/327/1
f 374/329/1 473/330/1 474/327/1
f 374/329/1 375/331/1 473/330/1
f 375/331/1 376/332/1 473/330/1
f 376/332/1 472/333/1 473/330/1
f 376/332/1 377/334/1 472/333/1
f 377/334/1 471/335/1 472/333/1
f 377/334/1 378/336/1 471/335/1
f 378/336/1 380/27/1 471/335/1
f 380/27/1 381/337/1 471/335/1
f 381/337/1 382/338/1 471/335/1
f 382/338/1 383/339/1 471/335/1
f 383/339/1 385/340/1 471/335/1
f 385/340/1 386/341/1 471/335/1
f 386/341/1 387/342/1 471/335/1
f 387/342/1 388/343/1 471/335/1
f 388/343/1 389/344/1 471/335/1
f 389/344/1 470/345/1 471/335/1
s 0
f 379/346/1 380/27/1 378/336/1
f 384/347/1 385/340/1 383/339/1
s 1
f 390/348/1 470/345/1 389/344/1
f 390/348/1 469/349/1 470/345/1
f 390/348/1 468/350/1 469/349/1
f 391/351/1 468/350/1 390/348/1
f 391/351/1 467/352/1 468/350/1
f 391/351/1 466/353/1 467/352/1
f 391/351/1 465/354/1 466/353/1
f 392/355/1 465/354/1 391/351/1
f 392/355/1 464/356/1 465/354/1
f 393/357/1 464/356/1 392/355/1
f 393/357/1 463/358/1 464/356/1
f 394/359/1 463/358/1 393/357/1
f 394/359/1 462/360/1 463/358/1
f 395/361/1 462/360/1 394/359/1
f 395/361/1 461/362/1 462/360/1
f 396/363/1 461/362/1 395/361/1
f 396/363/1 460/364/1 461/362/1
f 397/365/1 460/364/1 396/363/1
f 397/365/1 459/366/1 460/364/1
f 398/367/1 459/366/1 397/365/1
f 398/367/1 458/368/1 459/366/1
f 399/369/1 458/368/1 398/367/1
f 399/369/1 457/370/1 458/368/1
f 400/371/1 457/370/1 399/369/1
f 400/371/1 456/372/1 457/370/1
f 401/373/1 456/372/1 400/371/1
f 402/374/1 456/372/1 401/373/1
f 402/374/1 455/375/1 456/372/1
f 403/376/1 455/375/1 402/374/1
f 403/376/1 454/377/1 455/375/1
f 404/378/1 454/377/1 403/376/1
f 404/378/1 453/379/1 454/377/1
f 298/380/1 296/381/1 297/382/1
f 405/383/1 453/379/1 404/378/1
f 405/383/1 426/384/1 453/379/1
f 426/384/1 452/385/1 453/379/1
f 298/380/1 295/386/1 296/381/1
f 406/387/1 426/384/1 405/383/1
f 298/380/1 294/388/1 295/386/1
f 407/389/1 426/384/1 406/387/1
f 298/380/1 293/390/1 294/388/1
f 298/380/1 292/391/1 293/390/1
f 408/392/1 426/384/1 407/389/1
f 298/380/1 291/393/1 292/391/1
f 299/394/1 291/393/1 298/380/1
f 409/395/1 426/384/1 408/392/1
f 409/395/1 425/396/1 426/384/1
f 427/397/1 452/385/1 426/384/1
f 299/394/1 290/398/1 291/393/1
f 300/399/1 290/398/1 299/394/1
f 409/395/1 424/400/1 425/396/1
f 410/401/1 424/400/1 409/395/1
f 300/399/1 289/402/1 290/398/1
f 301/403/1 289/402/1 300/399/1
f 410/401/1 423/404/1 424/400/1
f 411/405/1 423/404/1 410/401/1
f 301/403/1 288/406/1 289/402/1
f 302/407/1 288/406/1 301/403/1
f 411/405/1 422/408/1 423/404/1
f 412/19/1 422/408/1 411/405/1
f 302/407/1 287/409/1 288/406/1
f 303/410/1 287/409/1 302/407/1
f 412/19/1 421/411/1 422/408/1
f 413/412/1 421/411/1 412/19/1
f 303/410/1 286/413/1 287/409/1
f 304/414/1 286/413/1 303/410/1
f 413/412/1 420/415/1 421/411/1
f 414/416/1 420/415/1 413/412/1
f 304/414/1 285/417/1 286/413/1
f 305/418/1 285/417/1 304/414/1
f 414/416/1 419/419/2 420/415/1
f 306/420/1 285/417/1 305/418/1
f 306/420/1 307/421/1 285/417/1
f 307/421/1 308/422/1 285/417/1
f 308/422/1 309/423/1 285/417/1
f 309/423/1 284/4/1 285/417/1
f 414/416/1 418/424/3 419/419/2
f 414/416/1 417/425/2 418/424/3
f 414/416/1 416/426/4 417/425/2
f 414/416/1 415/427/1 416/426/4
f 428/428/1 452/385/1 427/397/1
f 428/428/1 451/429/1 452/385/1
f 428/428/1 450/430/1 451/429/1
f 429/431/1 450/430/1 428/428/1
f 429/431/1 449/432/1 450/430/1
f 430/433/1 449/432/1 429/431/1
f 430/433/1 448/434/1 449/432/1
f 431/435/1 448/434/1 430/433/1
f 431/435/1 447/436/1 448/434/1
f 432/437/1 447/436/1 431/435/1
f 432/437/1 446/438/1 447/436/1
f 433/439/1 446/438/1 432/437/1
f 433/439/1 445/440/1 446/438/1
f 434/441/1 445/440/1 433/439/1
f 434/441/1 444/442/1 445/440/1
f 435/443/1 444/442/1 434/441/1
f 435/443/1 443/444/1 444/442/1
f 436/445/1 443/444/1 435/443/1
f 436/445/1 442/446/1 443/444/1
f 437/447/1 442/446/1 436/445/1
f 437/447/1 441/448/1 442/446/1
f 438/449/1 441/448/1 437/447/1
f 438/449/1 440/450/1 441/448/1
f 439/451/1 440/450/1 438/449/1
