# Blender 4.4.1
# www.blender.org
mtllib enemy.mtl
o enemy
v 0.230901 0.508402 0.363122
v 0.232081 -0.037347 0.485722
v -0.247902 0.508402 0.349743
v -0.249276 -0.037347 0.472270
v 0.483314 0.678606 -0.465731
v 0.251531 -0.037347 -0.472207
v -0.460823 0.678606 -0.492113
v -0.228979 -0.037347 -0.485635
v 0.013846 -0.037347 -0.478849
v -0.005769 0.508402 0.356509
v 0.013846 0.678606 -0.478849
v -0.008645 -0.037347 0.478994
v 0.472068 -0.037347 0.013191
v -0.472068 0.678606 -0.013191
v -0.472068 -0.037347 -0.013191
v 0.472068 0.678606 0.013191
v 0.002600 -0.037347 0.000073
v 0.002600 0.678606 0.000073
v 0.334629 0.206665 0.488587
v -0.460823 0.206665 -0.492113
v -0.379205 0.206665 0.468640
v 0.483314 0.206665 -0.465731
v -0.008645 0.206665 0.478994
v 0.013846 0.206665 -0.478849
v 0.472068 0.206665 0.013191
v -0.472068 0.206665 -0.013191
v -0.223489 -0.037347 -0.485481
v -0.243103 0.508402 0.349877
v -0.223489 1.143560 -0.485481
v -0.245979 -0.037347 0.472363
v -0.234734 -0.037347 -0.006559
v -0.234734 0.678606 -0.006559
v -0.223489 0.671619 -0.485481
v -0.245979 0.206665 0.472363
v 0.248580 1.141468 -0.472290
v 0.226089 -0.037347 0.485554
v 0.248580 -0.037347 -0.472290
v 0.228965 0.508402 0.363068
v 0.237334 0.678606 0.006632
v 0.237334 -0.037347 0.006632
v 0.226089 0.206665 0.485554
v 0.248580 0.669527 -0.472290
vn -0.0000 1.0000 -0.0000
vn -0.9997 -0.0000 -0.0235
vn 0.0279 -0.0000 -0.9996
vn -0.0000 -1.0000 -0.0000
vn -0.0259 0.3762 0.9262
vn -0.0258 0.3762 0.9262
vn 0.8774 0.4071 0.2537
vn -0.0120 0.9024 0.4306
vn 0.9997 -0.0000 0.0235
vn -0.8776 0.4485 0.1691
vn -0.8201 -0.4311 0.3764
vn 0.6924 -0.6493 -0.3146
vn -0.0279 -0.0000 0.9996
vn -0.0280 -0.0000 0.9996
vn 0.8334 -0.3552 0.4233
vn 0.0280 -0.0000 -0.9996
vn 0.0281 -0.0001 -0.9996
vn -0.6752 -0.6507 -0.3474
vn -0.8246 0.4154 0.3840
vn 0.8234 -0.0000 0.5675
vn -0.8269 0.4140 0.3807
vn -0.8508 -0.0000 0.5255
vn -0.9819 -0.0000 0.1892
vn 0.9607 -0.0000 0.2777
vn 0.8044 0.4167 0.4234
vn 0.8069 0.4152 0.4202
vt 0.193874 0.439153
vt 0.010339 0.411383
vt 0.151519 0.364043
vt 0.151712 0.323064
vt 0.101755 0.104164
vt 0.234793 0.191282
vt 0.607677 0.781691
vt 0.546439 0.728118
vt 0.651517 0.629658
vt 0.526371 0.112685
vt 0.421628 0.223217
vt 0.470403 0.059891
vt 0.375792 0.284074
vt 0.300143 0.347466
vt 0.350079 0.260109
vt 0.572345 0.513444
vt 0.413187 0.456567
vt 0.496931 0.398582
vt 0.412705 0.456185
vt 0.426076 0.330767
vt 0.475580 0.377751
vt 0.532315 0.328250
vt 0.582539 0.165864
vt 0.637724 0.218812
vt 0.723279 0.883569
vt 0.663297 0.835211
vt 0.763120 0.718841
vt 0.323084 0.570464
vt 0.140967 0.620590
vt 0.257481 0.505543
vt 0.355546 0.405459
vt 0.688369 0.054701
vt 0.743727 0.107620
vt 0.630928 0.000094
vt 0.632223 0.001325
vt 0.301107 0.348596
vt 0.282279 0.121974
vt 0.642852 0.465288
vt 0.756058 0.609214
vt 0.872756 0.708931
vt 0.814422 0.659012
vt 0.478502 0.275324
vt 0.533622 0.329620
vt 0.422425 0.223897
vt 0.756903 0.609816
vt 0.150472 0.000094
vt 0.879768 0.819054
vt 0.874109 0.710088
vt 0.780274 0.935332
vt 0.744422 0.108283
vt 0.351546 0.756140
vt 0.399633 0.611866
vt 0.692628 0.271381
vt 0.000094 0.563520
vt 0.017283 0.238592
vt 0.500424 0.899166
vt 0.449790 0.604794
vt 0.623710 0.999906
vt 0.196828 0.765001
s 1
usemtl Material.001
f 32/1/1 7/2/1 14/3/1
f 14/4/2 20/5/2 26/6/2
f 42/7/3 5/8/3 22/9/3
f 31/10/4 4/11/4 15/12/4
f 34/13/5 3/14/6 21/15/5
f 25/16/7 1/17/7 19/18/7
f 38/19/6 23/20/5 41/21/5
f 36/22/4 17/23/4 40/24/4
f 33/25/3 11/26/3 24/27/3
f 39/28/1 11/29/1 18/30/1
f 39/28/8 10/31/8 38/19/8
f 40/24/4 9/32/4 37/33/4
f 5/8/9 25/16/9 22/9/9
f 31/10/4 8/34/4 27/35/4
f 3/14/10 26/6/10 21/15/10
f 32/1/8 3/14/8 28/36/8
f 21/15/11 15/37/11 4/11/11
f 22/9/12 13/38/12 6/39/12
f 27/40/3 24/27/3 9/41/3
f 41/21/13 12/42/13 36/22/14
f 13/38/15 19/18/15 2/43/15
f 34/13/13 4/11/14 30/44/14
f 37/45/16 22/9/3 6/39/17
f 15/37/18 20/5/18 8/46/18
f 23/20/13 30/44/14 12/42/13
f 20/47/3 27/40/3 8/48/16
f 18/30/8 28/36/8 10/31/8
f 17/23/4 27/35/4 9/32/4
f 7/49/3 33/25/3 20/47/3
f 10/31/5 34/13/5 23/20/5
f 12/42/4 31/10/4 17/23/4
f 11/29/1 32/1/1 18/30/1
f 24/27/3 37/45/16 9/41/3
f 2/43/14 41/21/13 36/22/14
f 6/50/4 40/24/4 37/33/4
f 1/17/8 39/28/8 38/19/8
f 5/51/1 39/28/1 16/52/1
f 2/43/4 40/24/4 13/53/4
f 1/17/6 41/21/5 19/18/5
f 11/26/3 42/7/3 24/27/3
f 32/1/19 29/54/19 7/2/19
f 14/4/2 7/55/2 20/5/2
f 42/7/3 35/56/3 5/8/3
f 31/10/4 30/44/4 4/11/4
f 34/13/5 28/36/6 3/14/6
f 25/16/20 16/57/20 1/17/20
f 38/19/6 10/31/5 23/20/5
f 36/22/4 12/42/4 17/23/4
f 33/25/3 29/58/3 11/26/3
f 39/28/21 35/59/21 11/29/21
f 39/28/8 18/30/8 10/31/8
f 40/24/4 17/23/4 9/32/4
f 5/8/9 16/57/9 25/16/9
f 31/10/4 15/12/4 8/34/4
f 3/14/22 14/4/22 26/6/22
f 32/1/8 14/3/8 3/14/8
f 21/15/23 26/6/23 15/37/23
f 22/9/9 25/16/9 13/38/9
f 27/40/3 33/25/3 24/27/3
f 41/21/13 23/20/13 12/42/13
f 13/38/24 25/16/24 19/18/24
f 34/13/13 21/15/13 4/11/14
f 37/45/16 42/7/3 22/9/3
f 15/37/2 26/6/2 20/5/2
f 23/20/13 34/13/13 30/44/14
f 20/47/3 33/25/3 27/40/3
f 18/30/8 32/1/8 28/36/8
f 17/23/4 31/10/4 27/35/4
f 7/49/3 29/58/3 33/25/3
f 10/31/5 28/36/6 34/13/5
f 12/42/4 30/44/4 31/10/4
f 11/29/25 29/54/25 32/1/25
f 24/27/3 42/7/3 37/45/16
f 2/43/14 19/18/13 41/21/13
f 6/50/4 13/53/4 40/24/4
f 1/17/8 16/52/8 39/28/8
f 5/51/26 35/59/26 39/28/26
f 2/43/4 36/22/4 40/24/4
f 1/17/6 38/19/6 41/21/5
f 11/26/3 35/56/3 42/7/3
