# Blender 4.4.1
# www.blender.org
mtllib notu.mtl
o Cube
v 0.214357 1.336891 -0.585010
v 0.214357 1.336891 0.371010
v 0.214357 -1.591408 -0.585010
v 0.214357 -1.591408 0.371010
v -0.041309 0.780331 -0.403306
v 0.007284 1.336891 -0.585010
v -0.041309 0.780331 0.189307
v 0.007284 1.336891 0.371010
v 0.007284 -1.591408 -0.585010
v -0.041309 -1.034848 -0.403306
v -0.041309 -1.034848 0.189307
v 0.007284 -1.591408 0.371010
v -0.062316 0.780331 -0.403306
v -0.062316 0.780331 0.189307
v -0.062316 -1.034848 -0.403306
v -0.062316 -1.034848 0.189307
vn 1.0000 -0.0000 -0.0000
vn -0.0000 -1.0000 -0.0000
vn -0.0000 -0.0000 1.0000
vn -0.0000 1.0000 -0.0000
vn -0.9962 -0.0870 -0.0000
vn -0.9661 -0.0000 -0.2584
vn -0.9661 -0.0000 0.2584
vn -0.9962 0.0870 -0.0000
vn -0.0000 -0.0000 -1.0000
vn -1.0000 -0.0000 -0.0000
vt 0.625000 0.500000
vt 0.625000 0.750000
vt 0.875000 0.750000
vt 0.875000 0.500000
vt 0.422516 0.000000
vt 0.422516 0.250000
vt 0.625000 0.250000
vt 0.625000 0.000000
vt 0.422516 0.750000
vt 0.422516 1.000000
vt 0.625000 1.000000
vt 0.172516 0.702484
vt 0.172516 0.547516
vt 0.422516 0.500000
vt 0.125000 0.500000
vt 0.125000 0.750000
vt 0.327484 0.547516
vt 0.375000 0.500000
vt 0.375000 0.750000
vt 0.327484 0.702484
s 1
usemtl Material.001
f 1/1/1 2/2/1 4/3/1 3/4/1
f 12/5/2 9/6/2 3/7/2 4/8/2
f 8/9/3 12/10/3 4/11/3 2/2/3
f 11/12/2 16/12/2 15/13/2 10/13/2
f 6/14/4 8/9/4 2/2/4 1/1/4
f 10/13/5 9/15/5 12/16/5 11/12/5
f 5/17/6 6/18/6 9/15/6 10/13/6
f 11/12/7 12/16/7 8/19/7 7/20/7
f 7/20/8 8/9/8 6/14/8 5/17/8
f 9/6/9 6/14/9 1/1/9 3/7/9
f 15/13/10 16/12/10 14/20/10 13/17/10
f 5/17/4 13/17/4 14/20/4 7/20/4
f 7/20/3 14/20/3 16/12/3 11/12/3
f 10/13/9 15/13/9 13/17/9 5/17/9
